<?xml version="1.0" encoding="UTF-8"?>
<!-- Generated by Pixelmator Pro 3.7.1 -->
<svg width="2567" height="244" viewBox="0 0 2567 244" xmlns="http://www.w3.org/2000/svg">
    <path id="Shape" fill="#7b61ff" fill-rule="evenodd" stroke="none" d="M 717.415894 2.401581 C 770.430054 2.401581 785.813965 2.482635 785.805054 2.581696 C 785.796143 2.680756 774.634888 19.134537 761.002197 39.145676 L 736.215515 75.529526 L 761.018372 75.590683 L 785.821228 75.65184 L 785.823669 109.933197 C 785.825256 131.577332 785.917969 145.276917 786.075195 147.096466 C 786.212158 148.681488 786.541626 151.054565 786.807495 152.369965 C 787.073303 153.685333 787.661682 155.909454 788.11499 157.312454 C 788.568298 158.715454 789.475525 160.91745 790.131042 162.20575 C 790.786621 163.49408 791.948181 165.417847 792.712402 166.480789 C 793.476624 167.543747 795.142883 169.398911 796.415161 170.603363 C 797.6875 171.807831 799.655579 173.371582 800.788757 174.078339 C 801.921875 174.78511 803.810974 175.77832 804.986694 176.285492 C 806.162354 176.792664 808.066345 177.480865 809.217712 177.81485 C 810.36908 178.148834 812.461426 178.614594 813.867371 178.849823 C 815.708801 179.157959 817.7323 179.277557 821.104004 179.277557 C 824.240479 179.277557 826.694763 179.144073 828.544556 178.87291 C 830.062683 178.650345 832.276855 178.184692 833.464966 177.83812 C 834.653015 177.491547 836.543152 176.834564 837.665283 176.378174 C 838.787354 175.921768 840.553162 175.03653 841.589294 174.41098 C 842.625427 173.785431 844.162537 172.705566 845.005066 172.011261 C 845.847595 171.316956 847.145447 170.109299 847.889343 169.327591 C 848.633179 168.545883 849.707336 167.283508 850.276306 166.522339 C 850.845398 165.761139 851.798462 164.267029 852.394348 163.202057 C 852.990295 162.137085 853.801025 160.455215 854.196045 159.464569 C 854.591064 158.473907 855.196106 156.69075 855.540649 155.501968 C 855.885193 154.313187 856.395996 152.097748 856.675842 150.578735 C 857.17688 147.859161 857.186035 147.265137 857.276611 111.734375 L 857.36853 75.651825 L 882.282715 75.590683 L 907.19696 75.529526 L 882.271912 39.082504 C 868.56311 19.036636 857.346802 2.582855 857.346802 2.518524 C 857.346802 2.454193 872.737976 2.401581 891.549438 2.401581 L 925.752136 2.401581 L 925.748718 74.028549 C 925.746704 117.96772 925.654236 147.226471 925.509521 149.719513 C 925.379822 151.954697 925.103943 155.250854 924.896545 157.044312 C 924.689087 158.837753 924.305786 161.547928 924.0448 163.066925 C 923.783875 164.585938 923.295715 167.071548 922.959961 168.590546 C 922.624329 170.109558 921.984802 172.6492 921.538879 174.234253 C 921.092957 175.81929 920.359863 178.196854 919.909729 179.517715 C 919.459717 180.838577 918.590332 183.164993 917.977966 184.687515 C 917.365479 186.210037 916.158264 188.907303 915.295227 190.681442 C 914.43219 192.455566 912.958313 195.208496 912.019897 196.799042 C 911.081482 198.389587 909.696472 200.609543 908.942017 201.732285 C 908.187561 202.855011 906.786011 204.797394 905.827393 206.048691 C 904.868774 207.299988 903.195984 209.353333 902.110046 210.611679 C 901.024109 211.870041 898.743774 214.251328 897.042664 215.903427 C 895.341492 217.555527 892.647583 219.950348 891.056213 221.225235 C 889.464844 222.500137 887.034668 224.324341 885.655823 225.279022 C 884.276917 226.233704 881.922241 227.754807 880.422974 228.659241 C 878.923828 229.563675 876.218445 231.054459 874.411011 231.972076 C 872.603638 232.889709 869.563904 234.289948 867.656067 235.083755 C 865.748291 235.877548 862.513184 237.082108 860.467041 237.760544 C 858.420898 238.43898 854.910645 239.459351 852.666443 240.02803 C 850.422241 240.59671 847.02002 241.344284 845.105835 241.689301 C 843.19165 242.034317 839.897461 242.52829 837.785278 242.787018 C 835.673096 243.045746 832.162842 243.3703 829.98468 243.50824 C 827.806519 243.646179 823.594177 243.743698 820.623962 243.724945 C 817.653687 243.706192 813.819397 243.597717 812.103271 243.483902 C 810.387146 243.370071 807.241455 243.062561 805.112793 242.800537 C 802.984192 242.538498 799.743958 242.050507 797.912231 241.71611 C 796.080566 241.381714 792.808716 240.67543 790.641479 240.146576 C 788.474182 239.617737 784.795959 238.548813 782.46759 237.771194 C 780.139221 236.993576 776.899536 235.799393 775.26825 235.117447 C 773.637024 234.435516 770.808533 233.128815 768.982849 232.213699 C 767.157104 231.298569 764.447449 229.830734 762.961304 228.951828 C 761.475159 228.072937 759.233154 226.648056 757.979065 225.785446 C 756.724915 224.922821 754.726807 223.461502 753.538696 222.538055 C 752.350647 221.614609 750.244446 219.866104 748.858337 218.652481 C 747.47229 217.438858 745.312073 215.375168 744.057983 214.066483 C 742.803833 212.757813 740.961426 210.717087 739.963623 209.531525 C 738.965881 208.345978 737.493225 206.507141 736.69104 205.445206 C 735.888916 204.38327 734.530823 202.437988 733.673096 201.12236 C 732.815491 199.806732 731.43219 197.541534 730.599304 196.088577 C 729.766357 194.63562 728.408936 192.030411 727.582886 190.299194 C 726.756775 188.567993 725.550171 185.812195 724.901428 184.175186 C 724.252747 182.538177 723.388794 180.17215 722.981628 178.917328 C 722.574402 177.662506 721.921326 175.501083 721.530273 174.114166 C 721.13916 172.727264 720.542358 170.349701 720.203857 168.830719 C 719.865479 167.311707 719.374573 164.82608 719.113037 163.307083 C 718.85144 161.788086 718.469421 159.086319 718.26416 157.303146 C 718.058838 155.519989 717.784363 152.331879 717.654236 150.218506 C 717.507813 147.841217 717.417236 118.92556 717.416748 74.388779 L 717.415894 2.401581 Z M 1311.342163 178.420288 L 1311.220459 241.358261 L 1231.054932 241.358261 L 1150.889648 241.358261 L 1150.889648 121.879921 L 1150.889648 2.401581 L 1185.092285 2.401581 L 1219.295044 2.401581 L 1219.295044 90.059052 L 1219.295044 177.716537 L 1265.141235 177.716537 L 1310.987549 177.716537 L 1310.057373 175.855316 C 1309.545776 174.831635 1308.57373 172.738174 1307.897339 171.203171 C 1307.220825 169.668167 1306.19519 167.182526 1305.618164 165.67955 C 1305.04126 164.176575 1304.127197 161.595963 1303.58728 159.944885 C 1303.047241 158.293793 1302.230835 155.537994 1301.772949 153.820862 C 1301.315063 152.103745 1300.613159 149.077759 1300.213013 147.096466 C 1299.812988 145.115158 1299.269775 142.035126 1299.005981 140.251968 C 1298.742188 138.468811 1298.385742 135.44281 1298.213745 133.527557 C 1298.034668 131.53334 1297.901123 126.709961 1297.901123 122.240158 C 1297.901123 117.766022 1298.034668 112.948898 1298.213989 110.952759 C 1298.386108 109.037506 1298.789429 105.721649 1299.110352 103.584198 C 1299.431274 101.446747 1300.014404 98.184372 1300.406372 96.334473 C 1300.798218 94.484589 1301.497437 91.586349 1301.959839 89.893982 C 1302.422485 88.201599 1303.279175 85.357971 1303.86377 83.574799 C 1304.448242 81.791641 1305.466309 78.981796 1306.125977 77.330704 C 1306.785645 75.679626 1307.9646 72.923828 1308.74585 71.206696 C 1309.526855 69.489563 1310.878784 66.775574 1311.749756 65.175613 C 1312.62085 63.575623 1314.121094 60.961075 1315.083618 59.365479 C 1316.046265 57.769882 1317.800293 55.080338 1318.981445 53.388687 C 1320.162476 51.697067 1322.160767 49.016129 1323.421875 47.431107 C 1324.682861 45.846069 1326.974976 43.142975 1328.515503 41.424271 C 1330.055908 39.705536 1332.762573 36.935974 1334.530273 35.269669 C 1336.297852 33.603378 1338.878296 31.292725 1340.264404 30.134903 C 1341.650513 28.977081 1343.810669 27.255112 1345.064819 26.308304 C 1346.31897 25.361496 1348.370972 23.878952 1349.625122 23.013748 C 1350.879272 22.14856 1352.985474 20.762894 1354.305542 19.934479 C 1355.62561 19.106079 1357.947754 17.729721 1359.465942 16.875916 C 1360.984131 16.022095 1363.360229 14.753159 1364.746338 14.056061 C 1366.132446 13.358948 1368.562622 12.222443 1370.146729 11.530457 C 1371.730957 10.83847 1374.269043 9.785767 1375.787231 9.191101 C 1377.305298 8.596436 1379.627441 7.740433 1380.947632 7.288895 C 1382.2677 6.837341 1384.835693 6.036026 1386.654419 5.508209 C 1388.473022 4.980377 1391.497314 4.182632 1393.374878 3.735428 C 1395.252563 3.288239 1398.300903 2.64743 1400.149048 2.311417 C 1401.997314 1.975403 1405.183472 1.486984 1407.229614 1.226044 C 1409.275757 0.965103 1412.678101 0.609512 1414.790283 0.435837 C 1416.902344 0.262177 1421.384766 0.120071 1424.750977 0.120071 C 1428.117188 0.120071 1432.707642 0.261047 1434.951782 0.433334 C 1437.196045 0.605621 1440.706299 0.960922 1442.752441 1.222885 C 1444.798584 1.484863 1448.213135 2.01944 1450.340454 2.410858 C 1452.467773 2.802261 1456.315186 3.655472 1458.890503 4.30687 C 1461.46582 4.958267 1465.287842 6.053268 1467.383789 6.740189 C 1469.479736 7.427139 1472.652832 8.557755 1474.434937 9.252686 C 1476.216919 9.947617 1478.971191 11.098419 1480.555298 11.810043 C 1482.139526 12.521667 1485.244629 14.044037 1487.455688 15.193085 C 1489.666748 16.342133 1492.474976 17.889374 1493.696167 18.631439 C 1494.917358 19.373489 1497.158569 20.79509 1498.676758 21.790573 C 1500.194946 22.786041 1502.679077 24.520233 1504.197144 25.644318 C 1505.715332 26.768417 1508.145508 28.681671 1509.597656 29.896011 C 1511.049683 31.110352 1513.397827 33.174942 1514.815552 34.484024 C 1516.233398 35.793106 1518.703735 38.269089 1520.30542 39.986221 C 1521.906982 41.703354 1524.194824 44.297043 1525.389526 45.75 C 1526.584106 47.202957 1528.454712 49.596756 1529.546387 51.069565 C 1530.638062 52.542358 1532.341675 54.996368 1533.332153 56.522903 C 1534.322754 58.049438 1535.769287 60.410767 1536.546753 61.770279 C 1537.324219 63.129807 1538.620483 65.509796 1539.427246 67.059158 C 1540.234009 68.608521 1541.477417 71.20224 1542.19043 72.822937 C 1542.90332 74.443649 1543.986328 77.066544 1544.597168 78.651581 C 1545.208008 80.236603 1546.137085 82.884354 1546.661743 84.535431 C 1547.186401 86.186508 1547.992554 88.942322 1548.453125 90.659454 C 1548.913574 92.376587 1549.617065 95.402557 1550.016479 97.383865 C 1550.415771 99.365158 1550.9552 102.456177 1551.215088 104.252777 C 1551.474976 106.049393 1551.830078 109.075363 1552.004272 110.977188 C 1552.189087 112.995239 1552.320923 117.684975 1552.320923 122.240158 C 1552.320923 126.672218 1552.18811 131.498291 1552.013672 133.407471 C 1551.844604 135.256699 1551.487549 138.282684 1551.220337 140.131897 C 1550.953003 141.98111 1550.414673 145.060547 1550.023926 146.975098 C 1549.633301 148.889648 1548.931763 151.915634 1548.464966 153.699493 C 1547.998291 155.483383 1547.174072 158.293793 1546.633179 159.944885 C 1546.092407 161.595963 1545.08252 164.405807 1544.38916 166.18898 C 1543.695801 167.972137 1542.566162 170.67392 1541.879028 172.192917 C 1541.191895 173.711914 1539.971558 176.19754 1539.167114 177.716537 C 1538.362671 179.235535 1537.042725 181.613098 1536.233887 183 C 1535.424927 184.386902 1533.988525 186.690155 1533.04187 188.118317 C 1532.095215 189.546463 1530.545654 191.761917 1529.598389 193.041534 C 1528.651123 194.321152 1527.195923 196.212204 1526.365112 197.243881 C 1525.534058 198.275558 1523.659546 200.45697 1522.199585 202.091461 C 1520.739624 203.725952 1518.170898 206.381088 1516.491455 207.99176 C 1514.812012 209.602448 1512.195923 211.966446 1510.677734 213.245102 C 1509.159546 214.523773 1506.62146 216.544281 1505.037231 217.735153 C 1503.453125 218.92601 1501.022949 220.65451 1499.636841 221.576279 C 1498.250732 222.498047 1496.036499 223.907135 1494.716431 224.707581 C 1493.396362 225.508026 1491.344238 226.703659 1490.156128 227.364517 C 1488.968018 228.025375 1486.915894 229.107285 1485.595703 229.768738 C 1484.275635 230.430206 1481.899536 231.537094 1480.315308 232.2285 C 1478.731201 232.919907 1475.976929 234.052292 1474.194824 234.744934 C 1472.41272 235.437561 1469.604492 236.447388 1467.954346 236.988983 C 1466.304199 237.530594 1463.604004 238.346802 1461.953857 238.802811 C 1460.303833 239.258804 1457.495483 239.959671 1455.713379 240.360275 C 1453.931274 240.76088 1451.231079 241.309586 1449.712891 241.579605 C 1448.194824 241.849625 1445.764648 242.238953 1444.3125 242.444778 C 1442.860474 242.650604 1440.052246 242.980133 1438.072021 243.177078 C 1436.032959 243.379883 1431.141113 243.571686 1426.791138 243.61937 C 1422.566772 243.665695 1418.462524 243.664337 1417.67041 243.616364 C 1416.878418 243.56839 1414.826172 243.413284 1413.110107 243.271667 C 1411.394043 243.130051 1408.369751 242.796417 1406.389526 242.530243 C 1404.409424 242.264084 1401.115112 241.731125 1399.06897 241.345886 C 1397.022827 240.960648 1393.674561 240.227951 1391.628418 239.717651 C 1389.582275 239.207352 1386.234009 238.2733 1384.187866 237.641968 C 1382.141724 237.010635 1378.955444 235.922668 1377.1073 235.224274 C 1375.259155 234.525879 1372.396973 233.370697 1370.746826 232.657211 C 1369.09668 231.943726 1365.856445 230.396774 1363.546265 229.219513 C 1361.236084 228.042267 1357.833862 226.171844 1355.985596 225.063034 C 1354.137451 223.954224 1351.437256 222.230484 1349.985229 221.232513 C 1348.533081 220.234528 1346.264893 218.605881 1344.944824 217.613281 C 1343.624634 216.620667 1341.248535 214.726273 1339.664429 213.403503 C 1338.0802 212.080719 1334.724731 208.940582 1332.207764 206.425415 C 1329.690674 203.910233 1326.469482 200.447449 1325.049316 198.730316 C 1323.62915 197.013184 1321.504639 194.287018 1320.328125 192.67215 C 1319.151489 191.057281 1317.340698 188.409546 1316.304077 186.7883 C 1315.267334 185.167038 1313.726929 182.620987 1312.880737 181.130417 L 1311.342163 178.420288 Z M 66.005791 241.358261 L 65.885132 66.163391 L 32.941685 66.102493 L -0.001764 66.041611 L 0.059122 34.281631 L 0.120009 2.521652 L 100.207809 2.521652 L 200.295609 2.521652 L 200.356491 34.281631 L 200.417374 66.041611 L 167.473923 66.102493 L 134.530487 66.163391 L 134.470154 153.760834 L 134.409821 241.358261 L 100.207809 241.358261 L 66.005791 241.358261 Z M 209.29631 241.358261 L 209.29631 2.401581 L 243.498978 2.401581 L 277.70163 2.401581 L 277.70163 43.588577 L 277.70163 84.775589 L 310.463501 84.775589 L 343.225372 84.775589 L 343.286072 43.648621 L 343.346741 2.521652 L 377.48941 2.4608 L 411.63208 2.399933 L 411.63208 121.879097 L 411.63208 241.358261 L 377.429413 241.358261 L 343.226746 241.358261 L 343.226746 195.007874 L 343.226746 148.657471 L 310.464203 148.657471 L 277.70163 148.657471 L 277.70163 195.007874 L 277.70163 241.358261 L 243.498978 241.358261 L 209.29631 241.358261 Z M 436.354004 241.358261 L 436.354004 2.401581 L 521.680664 2.401581 L 607.007263 2.401581 L 607.007263 34.222443 L 607.007263 66.043304 L 555.883301 66.043304 L 504.759338 66.043304 L 504.759338 75.408875 L 504.759338 84.774429 L 553.663147 84.835052 L 602.566956 84.895676 L 602.566956 116.716537 L 602.566956 148.537399 L 553.663147 148.598022 L 504.759338 148.65863 L 504.759338 163.187592 L 504.759338 177.716537 L 555.883301 177.716537 L 607.007263 177.716537 L 607.007263 209.537399 L 607.007263 241.358261 L 521.680664 241.358261 L 436.354004 241.358261 Z M 949.273987 241.358261 L 949.273987 2.377609 L 1003.698181 2.482254 C 1051.164673 2.573517 1058.598022 2.63562 1061.842773 2.968048 C 1063.888916 3.177673 1067.12915 3.575836 1069.043335 3.852829 C 1070.95752 4.129807 1074.089722 4.685379 1076.003784 5.087402 C 1077.917969 5.489426 1080.971191 6.238449 1082.788696 6.751892 C 1084.606323 7.265335 1087.414429 8.164673 1089.029175 8.750443 C 1090.643921 9.336197 1093.177856 10.351974 1094.660156 11.00769 C 1096.142334 11.663422 1098.626587 12.873291 1100.180542 13.696259 C 1101.734497 14.519241 1104.379272 16.103134 1106.057617 17.216019 C 1107.736084 18.328918 1110.27417 20.177017 1111.697754 21.322891 C 1113.12146 22.468781 1115.478149 24.597137 1116.934937 26.052567 C 1118.391846 27.507996 1120.510376 29.862183 1121.643066 31.284073 C 1122.775635 32.705978 1124.405396 34.921417 1125.264771 36.207306 C 1126.124146 37.493195 1127.487793 39.735168 1128.295288 41.189499 C 1129.102783 42.643829 1130.354858 45.201218 1131.077637 46.872589 C 1131.800293 48.543961 1132.831421 51.227539 1133.368774 52.836075 C 1133.90625 54.444641 1134.71228 57.253952 1135.160278 59.07901 C 1135.608032 60.904068 1136.202148 63.745758 1136.480225 65.39389 C 1136.758423 67.042038 1137.143677 70.104858 1137.336304 72.20018 C 1137.530029 74.307007 1137.684937 78.586121 1137.682739 81.773621 C 1137.680542 84.94371 1137.526733 89.104431 1137.340942 91.019684 C 1137.155029 92.934937 1136.769165 95.951035 1136.483276 97.722122 C 1136.197388 99.49321 1135.646362 102.249023 1135.258545 103.84613 C 1134.87085 105.443268 1134.167847 107.938782 1133.696167 109.391739 C 1133.224487 110.844681 1132.3927 113.168198 1131.847412 114.555115 C 1131.302246 115.942032 1130.189331 118.390938 1129.374268 119.997139 C 1128.559204 121.603333 1127.224976 123.980888 1126.409302 125.280594 C 1125.593628 126.580307 1124.314453 128.496857 1123.566772 129.539612 C 1122.819214 130.582336 1121.21167 132.596664 1119.994507 134.015854 C 1118.777466 135.435059 1116.66394 137.633301 1115.297729 138.900864 C 1113.931641 140.168427 1111.903198 141.923889 1110.790161 142.80191 C 1109.677124 143.679916 1107.41626 145.291367 1105.766113 146.382904 C 1104.115967 147.474457 1101.260254 149.155289 1099.420044 150.118103 C 1097.579834 151.080917 1094.825562 152.398438 1093.299561 153.045929 C 1091.77356 153.693436 1089.12085 154.706055 1087.404663 155.296188 C 1085.688599 155.886337 1082.880371 156.739471 1081.164185 157.192078 C 1079.44812 157.644684 1076.710938 158.286118 1075.081543 158.617508 C 1073.452148 158.948914 1070.601807 159.441833 1068.747314 159.712891 C 1066.892944 159.983978 1063.743774 160.367813 1061.749146 160.565887 C 1058.995605 160.839325 1053.254272 160.958755 1037.900879 161.061996 L 1017.67926 161.197968 L 1017.67926 201.278107 L 1017.67926 241.358261 L 983.476624 241.358261 L 949.273987 241.358261 Z M 1624.309082 1.921265 L 1679.537109 1.921265 L 1687.891479 23.288712 C 1692.486206 35.040802 1700.708252 56.065353 1706.162598 70.009918 C 1711.616943 83.954498 1728.647705 127.512268 1744.008789 166.804962 L 1771.93811 238.246201 L 1772.058105 120.383919 L 1772.178101 2.521652 L 1815.86145 2.521652 C 1849.413574 2.521652 1860.574707 2.594482 1863.985229 2.835724 C 1866.427368 3.008469 1870.153809 3.353683 1872.265869 3.60289 C 1874.37793 3.852097 1877.456299 4.274857 1879.106445 4.542389 C 1880.756592 4.809906 1883.40271 5.293869 1884.986816 5.617859 C 1886.571045 5.941849 1889.433228 6.600418 1891.347412 7.081345 C 1893.261475 7.562271 1896.015747 8.314972 1897.467896 8.753998 C 1898.919922 9.193024 1901.512207 10.044601 1903.228271 10.646378 C 1904.944336 11.248154 1907.698608 12.295776 1909.348755 12.974426 C 1910.998901 13.653091 1914.131104 15.069199 1916.309326 16.121323 C 1918.487549 17.173447 1921.781738 18.911407 1923.629883 19.983444 C 1925.478027 21.055496 1928.232178 22.764374 1929.750366 23.780975 C 1931.268555 24.797546 1933.590698 26.437698 1934.910767 27.42572 C 1936.230835 28.413742 1938.337036 30.06897 1939.591064 31.103989 C 1940.845215 32.139008 1943.931763 35.047241 1946.449951 37.566727 C 1948.968262 40.086227 1952.083862 43.444489 1953.373535 45.029526 C 1954.66333 46.614563 1956.599121 49.153275 1957.675659 50.671097 C 1958.751953 52.188934 1960.301147 54.48468 1961.118286 55.772736 C 1961.935425 57.060806 1963.192627 59.169144 1963.912231 60.457932 C 1964.631836 61.746719 1965.818115 63.998627 1966.548462 65.462189 C 1967.278809 66.925735 1968.463867 69.51944 1969.181641 71.225967 C 1969.899536 72.932495 1970.932129 75.571548 1971.476074 77.090546 C 1972.020142 78.609543 1972.838135 81.095169 1973.294067 82.614166 C 1973.749756 84.133179 1974.463623 86.726868 1974.880615 88.37796 C 1975.297363 90.029037 1975.901245 92.730804 1976.222534 94.381897 C 1976.543945 96.032974 1977.014771 98.788773 1977.268921 100.505905 C 1977.522949 102.223038 1977.925171 105.735336 1978.162354 108.31102 C 1978.469971 111.645355 1978.594116 115.172852 1978.594116 120.559052 C 1978.594116 125.945267 1978.469971 129.472778 1978.162354 132.807083 C 1977.925171 135.382782 1977.523926 138.901093 1977.27124 140.62558 C 1977.018311 142.350052 1976.530273 145.213928 1976.186646 146.989746 C 1975.84314 148.765564 1975.237183 151.51535 1974.840332 153.100403 C 1974.443481 154.685425 1973.750854 157.225098 1973.301147 158.744095 C 1972.851318 160.263092 1972.003662 162.856781 1971.417236 164.507874 C 1970.831055 166.158966 1969.764038 168.914764 1969.046387 170.631897 C 1968.328491 172.349014 1967.078369 175.085037 1966.268311 176.711914 C 1965.458374 178.338821 1964.215332 180.71637 1963.505859 181.995392 C 1962.796509 183.274399 1961.56958 185.35582 1960.779297 186.620758 C 1959.989136 187.885696 1958.556152 190.047119 1957.594727 191.423904 C 1956.633545 192.80069 1955.087036 194.899811 1954.158325 196.088577 C 1953.229492 197.277359 1951.421387 199.438782 1950.140259 200.891724 C 1948.859131 202.344681 1946.528442 204.81839 1944.96106 206.388855 C 1943.393677 207.95932 1940.707153 210.437775 1938.991089 211.896545 C 1937.274902 213.355301 1934.628052 215.474609 1933.109253 216.60611 C 1931.590332 217.73761 1928.998169 219.543625 1927.348755 220.619476 C 1925.699463 221.695328 1922.999878 223.344055 1921.349731 224.28331 C 1919.699585 225.222565 1916.696533 226.80365 1914.67627 227.796844 C 1912.656006 228.790024 1909.294556 230.299698 1907.206421 231.151672 C 1905.118164 232.003632 1901.612183 233.301147 1899.415283 234.035034 C 1897.218384 234.768906 1894.057495 235.743225 1892.391235 236.200165 C 1890.724976 236.657104 1887.675293 237.404388 1885.614136 237.860764 C 1883.552979 238.317154 1880.24646 238.959976 1878.266357 239.289246 C 1876.286133 239.61853 1873.153931 240.060608 1871.305786 240.271637 C 1869.457642 240.482666 1866.865479 240.772949 1865.545288 240.916687 C 1863.881592 241.097839 1838.026978 241.207733 1781.288086 241.274811 L 1699.430908 241.371567 L 1692.50354 222.572601 C 1688.693359 212.233154 1685.259521 202.936066 1684.872681 201.912399 L 1684.169189 200.051178 L 1651.688721 200.051178 L 1619.20813 200.051178 L 1618.591187 201.672241 C 1618.251953 202.563828 1614.753174 211.830902 1610.816406 222.265747 L 1603.658569 241.23819 L 1567.008789 241.298996 C 1546.851563 241.332443 1530.359253 241.316574 1530.359253 241.263748 C 1530.359253 241.210922 1549.794678 191.657654 1573.54895 131.145401 C 1597.303223 70.633118 1618.442017 16.802689 1620.523926 11.522186 L 1624.309082 1.921265 Z M 1993.834839 241.358261 L 1993.955322 2.521652 L 2079.342041 2.461273 L 2164.72876 2.400894 L 2164.72876 34.221542 L 2164.72876 66.042206 L 2113.544678 66.102783 L 2062.360596 66.163391 L 2062.297852 75.469482 L 2062.235107 84.775589 L 2111.20166 84.775589 L 2160.168213 84.775589 L 2160.168213 116.716537 L 2160.168213 148.657471 L 2111.20459 148.657471 L 2062.240723 148.657471 L 2062.240723 163.187012 L 2062.240723 177.716537 L 2113.484619 177.716537 L 2164.72876 177.716537 L 2164.72876 209.537399 L 2164.72876 241.358261 L 2079.281738 241.358261 L 1993.834839 241.358261 Z M 2182.249512 241.358261 L 2182.370117 2.521652 L 2234.093994 2.521652 C 2272.530273 2.521652 2286.927979 2.597549 2290.138428 2.817123 C 2292.514648 2.979614 2295.754883 3.283661 2297.339111 3.492783 C 2298.923096 3.701889 2301.67749 4.140869 2303.459473 4.468307 C 2305.241455 4.795715 2308.203125 5.437561 2310.040527 5.894623 C 2311.87793 6.351669 2315.004395 7.268036 2316.988037 7.930984 C 2318.97168 8.593933 2322.112793 9.781631 2323.968018 10.570297 C 2325.823486 11.358994 2328.745361 12.770294 2330.46167 13.706558 C 2332.177734 14.642807 2334.77002 16.190796 2336.221924 17.146515 C 2337.674072 18.102249 2339.780273 19.597061 2340.902344 20.468353 C 2342.024414 21.33963 2343.96875 22.97934 2345.222656 24.112137 C 2346.476807 25.244949 2348.458252 27.226685 2349.625732 28.516006 C 2350.793213 29.805328 2352.634766 32.049011 2353.717773 33.501968 C 2354.800781 34.954926 2356.287598 37.116333 2357.021729 38.305115 C 2357.755615 39.493896 2358.789795 41.277069 2359.31958 42.267715 C 2359.849609 43.258362 2360.779297 45.164795 2361.385742 46.504227 C 2361.992188 47.843674 2362.983643 50.383331 2363.588867 52.147934 C 2364.194092 53.912537 2365.052002 56.761215 2365.495117 58.478348 C 2365.938477 60.19548 2366.530273 62.951279 2366.810303 64.602356 C 2367.090332 66.253448 2367.49292 69.470566 2367.705078 71.751511 C 2368.004639 74.974991 2368.057129 77.355362 2367.940674 82.438522 C 2367.858154 86.035431 2367.630127 90.16713 2367.433838 91.620071 C 2367.237549 93.073029 2366.853271 95.450592 2366.579834 96.903549 C 2366.306396 98.356491 2365.768799 100.734055 2365.38501 102.187012 C 2365.000977 103.639954 2364.263184 106.086349 2363.744873 107.623398 C 2363.226807 109.160461 2362.241455 111.683777 2361.555664 113.230759 C 2360.869873 114.777756 2359.713135 117.140533 2358.985107 118.481377 C 2358.25708 119.822243 2356.873779 122.10807 2355.910889 123.56102 C 2354.948242 125.013977 2353.256592 127.337082 2352.151611 128.72348 C 2351.046875 130.109894 2348.849854 132.528595 2347.269775 134.098358 C 2345.689209 135.668121 2343.360352 137.791901 2342.093994 138.817841 C 2340.827881 139.843781 2338.880859 141.324127 2337.766846 142.107483 C 2336.65332 142.890869 2335.755859 143.685425 2335.772949 143.873199 C 2335.789795 144.060944 2342.615967 155.808289 2350.942139 169.978378 C 2359.268555 184.148468 2370.865479 203.88942 2376.713379 213.847153 L 2387.345947 231.952118 L 2387.406982 204.83432 L 2387.468018 177.716537 L 2433.970459 177.71405 C 2464.035156 177.712463 2481.491455 177.623566 2483.353516 177.462616 C 2484.9375 177.325684 2487.205811 177.014084 2488.393799 176.770157 C 2489.582031 176.526245 2491.178467 176.089966 2491.941895 175.800659 C 2492.705322 175.511353 2493.783936 174.927933 2494.339355 174.504166 C 2494.894531 174.080399 2495.594238 173.3694 2495.894287 172.924164 C 2496.194092 172.478943 2496.657227 171.409042 2496.92334 170.546646 C 2497.189697 169.684235 2497.531006 167.666107 2497.682129 166.06189 C 2497.890869 163.846268 2497.888184 162.252319 2497.671631 159.430908 C 2497.514893 157.388062 2497.211914 155.019928 2496.998779 154.168365 C 2496.785645 153.316803 2496.411621 152.223389 2496.16748 151.738556 C 2495.810791 151.029465 2495.462158 150.759033 2494.385742 150.355988 C 2493.649658 150.080429 2492.162354 149.680756 2491.080811 149.467865 C 2489.477295 149.152283 2486.962891 149.06601 2477.473145 149.0009 C 2471.070557 148.95697 2463.077881 148.803406 2459.71167 148.659637 C 2456.345215 148.515839 2452.187256 148.239334 2450.470947 148.045166 C 2448.754639 147.850983 2446.042969 147.479919 2444.444336 147.220551 C 2442.846191 146.961182 2440.199707 146.466248 2438.563965 146.120667 C 2436.928223 145.775101 2433.952637 145.022186 2431.951416 144.44754 C 2429.950195 143.872894 2426.76416 142.791992 2424.87085 142.045563 C 2422.977783 141.299133 2419.802979 139.854034 2417.815674 138.834229 C 2415.828857 137.814423 2412.966309 136.158142 2411.455322 135.153625 C 2409.944092 134.149078 2407.789551 132.591888 2406.66748 131.693146 C 2405.54541 130.794434 2403.438721 128.867218 2401.986084 127.410454 C 2400.533203 125.953697 2398.589111 123.811096 2397.665527 122.649109 C 2396.742188 121.487122 2395.249756 119.433769 2394.348633 118.086128 C 2393.447998 116.738464 2391.872803 113.952682 2390.848633 111.895523 C 2389.823975 109.838348 2388.52832 106.866394 2387.96875 105.291183 C 2387.409424 103.715973 2386.69458 101.541885 2386.380615 100.4599 C 2386.066406 99.377884 2385.527588 97.16243 2385.183105 95.536667 C 2384.838135 93.910889 2384.338623 91.013672 2384.07251 89.098419 C 2383.725586 86.601105 2383.550537 83.680176 2383.453613 78.771652 C 2383.347656 73.380722 2383.405029 71.01532 2383.723145 67.633453 C 2383.945313 65.271912 2384.343506 62.083832 2384.607666 60.548813 C 2384.871826 59.013794 2385.312988 56.785233 2385.587891 55.596451 C 2385.862793 54.407669 2386.401367 52.408356 2386.784668 51.153549 C 2387.168213 49.898727 2387.865234 47.845367 2388.333984 46.590546 C 2388.802979 45.335739 2389.775391 43.066238 2390.495605 41.547241 C 2391.215576 40.028244 2392.413574 37.758759 2393.157471 36.503937 C 2393.901855 35.249115 2395.078125 33.411911 2395.771729 32.421265 C 2396.465576 31.430603 2397.651123 29.863571 2398.40625 28.93898 C 2399.161621 28.014374 2401.086426 25.954544 2402.683594 24.361572 C 2404.280762 22.768616 2406.613525 20.671631 2407.867676 19.701599 C 2409.121582 18.731598 2411.174072 17.263214 2412.427979 16.438538 C 2413.681885 15.613861 2416.05835 14.221802 2417.708252 13.345047 C 2419.358398 12.468292 2422.058594 11.173752 2423.70874 10.468277 C 2425.358887 9.762817 2428.275391 8.674744 2430.189453 8.050369 C 2432.103516 7.425995 2434.857666 6.607742 2436.309814 6.23204 C 2437.761963 5.856339 2440.354004 5.279327 2442.070313 4.949799 C 2443.786377 4.62027 2446.811279 4.125076 2448.79248 3.84938 C 2450.773193 3.573669 2454.175537 3.178513 2456.353027 2.971237 C 2459.756104 2.647247 2467.324951 2.578842 2510.295654 2.483658 L 2560.279541 2.37294 L 2560.279541 34.20813 L 2560.279541 66.043304 L 2536.937744 66.070068 C 2524.099609 66.084808 2501.660889 66.181396 2487.07373 66.284729 C 2464.783447 66.442642 2460.226074 66.53183 2458.511475 66.843719 C 2457.389404 67.047836 2455.839355 67.403931 2455.067139 67.63504 C 2454.206055 67.892761 2453.527832 68.261307 2453.313965 68.588089 C 2453.121826 68.881149 2452.846191 70.076538 2452.701172 71.244507 C 2452.550293 72.460846 2452.496582 74.804535 2452.575684 76.730316 C 2452.651855 78.579529 2452.846924 80.565216 2453.009521 81.14296 C 2453.264648 82.05101 2453.450195 82.257874 2454.379639 82.669159 C 2454.970703 82.930832 2456.439209 83.348419 2457.643066 83.597153 C 2458.84668 83.845871 2461.775635 84.16217 2464.1521 84.300018 C 2466.52832 84.437881 2474.466797 84.598541 2481.793457 84.657028 C 2489.120117 84.7155 2496.086426 84.873474 2497.274658 85.008041 C 2498.462646 85.142609 2500.730957 85.422928 2502.314941 85.630981 C 2503.898926 85.83902 2506.762451 86.32399 2508.677734 86.70871 C 2510.593262 87.093414 2513.510254 87.778275 2515.159668 88.230637 C 2516.809326 88.682983 2519.562256 89.560242 2521.277832 90.180084 C 2522.993164 90.799927 2525.800781 91.970047 2527.516846 92.780334 C 2529.233154 93.590637 2531.555176 94.777328 2532.677246 95.417419 C 2533.799316 96.057526 2535.743652 97.27034 2536.997559 98.112549 C 2538.251709 98.954773 2540.196045 100.3741 2541.318115 101.266617 C 2542.439941 102.159134 2544.716553 104.244324 2546.376709 105.900391 C 2548.036621 107.556458 2550.124268 109.830017 2551.015625 110.952759 C 2551.906738 112.075485 2553.316162 114.020767 2554.147705 115.275589 C 2554.979248 116.530411 2556.264404 118.632317 2557.003418 119.946465 C 2557.742676 121.260635 2558.931396 123.638191 2559.645508 125.229935 C 2560.359375 126.821678 2561.44458 129.570953 2562.056885 131.339447 C 2562.669434 133.107941 2563.540283 136.025864 2563.992676 137.8237 C 2564.444824 139.621552 2565.041748 142.359619 2565.318359 143.908325 C 2565.595459 145.457001 2565.97583 147.942627 2566.163818 149.431946 C 2566.351807 150.921234 2566.638184 154.643799 2566.800049 157.7043 C 2567.030029 162.055359 2567.031738 164.359711 2566.807373 168.271225 C 2566.649658 171.022552 2566.30957 174.732574 2566.051758 176.515747 C 2565.793701 178.29892 2565.359131 180.838577 2565.085205 182.159454 C 2564.811768 183.480316 2564.262207 185.735977 2563.864502 187.172043 C 2563.466797 188.608093 2562.647461 191.147766 2562.044189 192.815735 C 2561.440918 194.483719 2560.2771 197.253357 2559.458252 198.970474 C 2558.63916 200.687592 2557.187012 203.381744 2556.230713 204.957474 C 2555.274658 206.533203 2553.5896 209.018829 2552.48584 210.481094 C 2551.382324 211.943359 2549.633057 214.079086 2548.598877 215.227158 C 2547.564697 216.375214 2545.692139 218.256256 2544.438232 219.407257 C 2543.184326 220.558243 2541.456055 222.05986 2540.5979 222.744171 C 2539.739746 223.428497 2538.119629 224.636108 2536.997559 225.427765 C 2535.875732 226.219421 2533.936768 227.481705 2532.689209 228.232849 C 2531.441895 228.984009 2529.281738 230.180557 2527.888916 230.891876 C 2526.496094 231.603195 2524.03418 232.740738 2522.41748 233.419739 C 2520.800537 234.098755 2517.884521 235.186493 2515.937012 235.836945 C 2513.989258 236.487396 2511.109375 237.344284 2509.537354 237.741119 C 2507.965332 238.137955 2505.319092 238.733154 2503.656982 239.063766 C 2501.994873 239.394379 2499.150879 239.878479 2497.336914 240.139557 C 2495.523193 240.400635 2492.229004 240.754639 2490.016357 240.926224 C 2486.821045 241.174011 2468.275146 241.23819 2399.854248 241.23819 L 2313.714355 241.23819 L 2290.043457 199.690948 L 2266.372314 158.143707 L 2258.633789 158.080338 L 2250.895264 158.016968 L 2250.895264 199.687622 L 2250.895264 241.358261 L 2216.57251 241.358261 L 2182.249512 241.358261 Z M 1424.630981 179.355377 C 1427.071167 179.38031 1430.013794 179.24617 1431.951538 179.021698 C 1433.733643 178.815247 1436.487915 178.373688 1438.072021 178.040466 C 1439.65625 177.707214 1442.356445 176.972473 1444.07251 176.407684 C 1445.788574 175.842896 1448.502686 174.788147 1450.103638 174.063812 C 1451.70459 173.339462 1454.162598 172.062592 1455.565674 171.226318 C 1456.96875 170.390045 1459.237671 168.863678 1460.607666 167.834412 C 1461.977661 166.805145 1464.251831 164.861359 1465.661255 163.514862 C 1467.070679 162.168396 1469.101563 159.976761 1470.174316 158.644592 C 1471.246948 157.312408 1472.759644 155.249817 1473.536011 154.06102 C 1474.312134 152.872238 1475.730957 150.325775 1476.688843 148.402191 C 1477.646606 146.478607 1478.927612 143.39859 1479.535278 141.557709 C 1480.142944 139.716812 1480.916626 136.960739 1481.254761 135.433075 C 1481.592896 133.905426 1482.032837 131.258362 1482.232544 129.55069 C 1482.432129 127.843033 1482.595459 124.592422 1482.595459 122.327118 C 1482.595459 120.061813 1482.483032 117.089203 1482.345459 115.721313 C 1482.207886 114.353424 1481.774292 111.63118 1481.381958 109.671875 C 1480.989624 107.71257 1480.176514 104.632538 1479.574951 102.827393 C 1478.973389 101.022217 1477.786377 98.097427 1476.937256 96.32782 C 1476.088013 94.558212 1474.774414 92.128998 1474.018066 90.929535 C 1473.261597 89.730087 1472.036621 87.935806 1471.295898 86.942276 C 1470.555176 85.94873 1469.068726 84.143616 1467.992676 82.930908 C 1466.916626 81.718185 1464.820679 79.679962 1463.334961 78.40152 C 1461.849365 77.123077 1459.35437 75.220749 1457.790649 74.174118 C 1456.226807 73.127487 1453.344849 71.476898 1451.386108 70.506119 C 1449.288208 69.466492 1446.295044 68.238037 1444.102905 67.517029 C 1442.055908 66.843765 1439.051514 66.022705 1437.426514 65.692444 C 1435.801392 65.362167 1433.121704 64.954773 1431.471558 64.787109 C 1429.821411 64.619461 1426.905151 64.482285 1424.990967 64.482285 C 1423.076904 64.482285 1420.161255 64.619812 1418.511841 64.787872 C 1416.862549 64.955963 1414.162231 65.37114 1412.511353 65.710495 C 1410.860474 66.049866 1408.105713 66.790939 1406.389526 67.357376 C 1404.673462 67.923782 1402.125366 68.890594 1400.727173 69.505814 C 1399.329102 70.121033 1397.032471 71.295776 1395.623779 72.116333 C 1394.215088 72.936905 1392.101929 74.289627 1390.927979 75.122406 C 1389.753906 75.95517 1387.682251 77.630264 1386.324341 78.844849 C 1384.966431 80.059402 1382.994751 82.025787 1381.942993 83.214569 C 1380.891235 84.403351 1379.443115 86.168335 1378.724976 87.13678 C 1378.006836 88.105209 1376.884155 89.761108 1376.229858 90.816574 C 1375.575684 91.872009 1374.411255 93.997574 1373.642456 95.540024 C 1372.873779 97.082474 1371.847534 99.410065 1371.361938 100.712448 C 1370.876465 102.014832 1370.119507 104.393219 1369.680054 105.997742 C 1369.240601 107.60228 1368.708618 109.940918 1368.498047 111.194748 C 1368.287476 112.448563 1368.006104 114.447037 1367.872803 115.635834 C 1367.739502 116.824608 1367.629639 119.773796 1367.62854 122.18959 C 1367.627441 124.60537 1367.740234 127.631348 1367.87915 128.914001 C 1368.018066 130.196625 1368.44519 132.81308 1368.828247 134.728348 C 1369.211426 136.6436 1369.918091 139.399414 1370.39856 140.852356 C 1370.87915 142.305313 1371.576782 144.21312 1371.948975 145.091919 C 1372.321167 145.970718 1373.186768 147.807922 1373.872314 149.174591 C 1374.557739 150.54126 1375.713257 152.573273 1376.439819 153.690155 C 1377.166504 154.807053 1378.419434 156.590225 1379.224365 157.652756 C 1380.029175 158.715302 1381.826172 160.758759 1383.217773 162.193771 C 1384.609375 163.628784 1386.828003 165.675354 1388.148193 166.741669 C 1389.468262 167.808014 1391.520386 169.312042 1392.708496 170.083954 C 1393.896606 170.855865 1396.056763 172.09671 1397.508911 172.841385 C 1398.960938 173.58606 1401.174927 174.612976 1402.428711 175.123428 C 1403.682495 175.633881 1405.734619 176.367096 1406.989014 176.752808 C 1408.24353 177.138519 1410.263916 177.674408 1411.479004 177.943665 C 1412.69397 178.212906 1414.746094 178.590393 1416.039307 178.782532 C 1417.332397 178.97467 1418.876465 179.172791 1419.470581 179.222809 C 1420.064697 179.272812 1422.386841 179.332474 1424.630981 179.355377 Z M 1840.463379 66.283463 L 1840.463379 177.716537 L 1847.989136 177.716537 C 1852.128296 177.716537 1856.907593 177.604889 1858.609985 177.468414 C 1860.312256 177.33194 1862.839111 177.054977 1864.22522 176.852951 C 1865.611328 176.650925 1868.041504 176.175446 1869.62561 175.796356 C 1871.209839 175.417252 1873.748657 174.676208 1875.267578 174.149597 C 1876.786621 173.622971 1879.05481 172.715546 1880.307983 172.133118 C 1881.561279 171.550659 1883.560913 170.486069 1884.751587 169.767334 C 1885.942261 169.048615 1887.778442 167.814362 1888.831909 167.024567 C 1889.885376 166.234772 1891.653564 164.724014 1892.76123 163.667328 C 1893.869019 162.610626 1895.502686 160.8815 1896.391846 159.824799 C 1897.281006 158.768112 1898.721191 156.812286 1899.592285 155.478546 C 1900.463379 154.144806 1901.876831 151.612762 1902.733643 149.851807 C 1903.59021 148.09082 1904.825195 145.021347 1905.478027 143.030731 C 1906.130859 141.0401 1906.941162 138.060532 1907.278687 136.409454 C 1907.616211 134.758362 1908.061401 132.056595 1908.267944 130.405518 C 1908.474609 128.754425 1908.710693 125.390312 1908.792725 122.929695 C 1908.883057 120.224731 1908.830444 117.043747 1908.659668 114.884415 C 1908.504517 112.920135 1908.21228 110.178253 1908.01062 108.791336 C 1907.80896 107.404419 1907.316162 104.924988 1906.915771 103.281448 C 1906.515381 101.637924 1905.763184 99.098267 1905.244141 97.637756 C 1904.72522 96.177231 1903.719238 93.793503 1903.008545 92.340546 C 1902.297974 90.887604 1901.077271 88.726181 1900.295898 87.537399 C 1899.514526 86.348618 1898.023438 84.360245 1896.982422 83.118774 C 1895.941284 81.877319 1894.112549 80.004791 1892.918335 78.957626 C 1891.724243 77.910446 1889.721313 76.368073 1888.467163 75.530121 C 1887.213013 74.692154 1885.344604 73.553467 1884.315063 72.99968 C 1883.285522 72.445908 1881.585571 71.63092 1880.537354 71.188599 C 1879.489136 70.746277 1877.65625 70.057419 1876.463989 69.657761 C 1875.271851 69.258118 1873.223999 68.659119 1871.913086 68.326645 C 1870.602417 67.994186 1868.255249 67.512741 1866.69751 67.256775 C 1865.139771 67.000809 1862.685425 66.677109 1861.243286 66.53743 C 1859.80127 66.397751 1854.535889 66.283463 1849.542358 66.283463 L 1840.463379 66.283463 Z M 1651.448608 137.129913 C 1661.784546 137.129913 1663.125 137.087799 1663.00293 136.766754 C 1662.927002 136.567017 1660.475342 130.109772 1657.55481 122.417343 C 1654.634277 114.724915 1652.065186 108.014175 1651.845825 107.504562 C 1651.446899 106.578033 1651.446899 106.578033 1645.730347 121.487152 C 1642.58606 129.687164 1639.955688 136.56134 1639.88501 136.763092 C 1639.770874 137.088837 1641.06604 137.129913 1651.448608 137.129913 Z M 1017.67926 97.503937 C 1041.582153 97.50061 1050.289063 97.39209 1052.449219 97.260635 C 1054.609253 97.129196 1057.435303 96.805756 1058.72937 96.541901 C 1060.023315 96.278061 1061.71167 95.821106 1062.481079 95.526474 C 1063.344849 95.19577 1064.30481 94.575668 1064.990112 93.905838 C 1065.744995 93.167999 1066.268921 92.362473 1066.627686 91.388107 C 1066.917847 90.600082 1067.324829 88.81691 1067.532104 87.425507 C 1067.81897 85.501358 1067.87793 83.803223 1067.778564 80.332672 C 1067.697144 77.485794 1067.504395 75.137436 1067.265869 74.088577 C 1067.055786 73.163986 1066.58667 71.813095 1066.223389 71.086639 C 1065.825073 70.290009 1065.172363 69.47258 1064.578979 69.026947 C 1064.037598 68.620575 1062.849609 68.048615 1061.938721 67.755905 C 1061.027832 67.463211 1059.418457 67.056915 1058.362427 66.853012 C 1056.800537 66.551468 1052.881592 66.441025 1037.36084 66.261139 C 1026.865967 66.139511 1018.144348 66.091385 1017.979309 66.15419 C 1017.74353 66.243927 1017.67926 69.612946 1017.67926 81.886169 L 1017.67926 97.503937 Z M 2250.895264 65.995834 L 2250.895264 94.862198 L 2267.036621 94.860245 C 2276.526611 94.859085 2284.068115 94.756439 2285.338135 94.61116 C 2286.526123 94.475235 2288.487549 94.157532 2289.696777 93.905121 C 2290.90625 93.652725 2292.498535 93.191864 2293.235352 92.880981 C 2293.971924 92.570114 2295.049561 91.980835 2295.630127 91.571457 C 2296.387207 91.037628 2296.895264 90.396027 2297.427734 89.302368 C 2297.905762 88.320862 2298.299805 86.964645 2298.533691 85.496063 C 2298.733643 84.241241 2298.897705 81.904861 2298.898193 80.304092 C 2298.898682 78.703339 2298.732178 76.433853 2298.52832 75.260788 C 2298.324219 74.087738 2297.907227 72.580399 2297.601563 71.911179 C 2297.295898 71.241943 2296.650146 70.309921 2296.166504 69.840042 C 2295.683105 69.370132 2294.64624 68.697784 2293.862793 68.345947 C 2293.079102 67.994095 2291.59668 67.496323 2290.568115 67.239807 C 2289.539795 66.983276 2287.888184 66.656021 2286.898193 66.512589 C 2285.8125 66.355255 2278.311768 66.200989 2267.996582 66.123795 L 2250.895264 65.995834 Z"/>
</svg>
