<?xml version="1.0" encoding="UTF-8"?>
<!-- Generated by Pixelmator Pro 3.7.1 -->
<svg width="128" height="24" viewBox="0 -50 2800 400" xmlns="http://www.w3.org/2000/svg">
    <path id="Shape" fill="#7b61ff" fill-rule="evenodd" stroke="none" d="M 753.188904 2.519684 C 808.846497 2.519684 824.997498 2.604736 824.988159 2.708664 C 824.978821 2.812592 813.260986 20.075592 798.948547 41.070862 L 772.925903 79.244095 L 798.965515 79.308258 L 825.005127 79.372421 L 825.007751 115.339752 C 825.009399 138.048355 825.106689 152.421692 825.27179 154.330719 C 825.415527 155.993713 825.761475 158.48349 826.040588 159.863556 C 826.319641 161.243622 826.937378 163.577148 827.413269 165.049133 C 827.889221 166.521149 828.841675 168.831421 829.529907 170.183075 C 830.21814 171.53476 831.437622 173.553131 832.239929 174.668365 C 833.042297 175.7836 834.791626 177.730011 836.127319 178.993713 C 837.463135 180.257416 839.529358 181.898041 840.718994 182.639572 C 841.90863 183.381104 843.891907 184.423157 845.126282 184.955261 C 846.360535 185.487366 848.359436 186.209442 849.568298 186.559845 C 850.777039 186.910263 852.973694 187.398895 854.449768 187.645721 C 856.383057 187.969009 858.507385 188.094482 862.047241 188.094482 C 865.340149 188.094482 867.916809 187.954437 869.858826 187.669937 C 871.452637 187.436432 873.777222 186.947876 875.024536 186.584259 C 876.271851 186.220642 878.256287 185.531342 879.434326 185.052505 C 880.612366 184.573654 882.466248 183.644897 883.554016 182.988586 C 884.641846 182.33226 886.255554 181.19928 887.140076 180.470825 C 888.024658 179.742371 889.387268 178.475342 890.168152 177.655182 C 890.949097 176.835022 892.076843 175.510559 892.674194 174.711945 C 893.271606 173.91333 894.272278 172.345734 894.897888 171.228394 C 895.523499 170.111053 896.374634 168.346466 896.789368 167.307083 C 897.204041 166.267715 897.839355 164.396851 898.200989 163.149597 C 898.562744 161.902359 899.098999 159.577957 899.392822 157.984253 C 899.918823 155.13092 899.928467 154.50769 900.02356 117.229523 L 900.120056 79.372406 L 926.27655 79.308258 L 952.433105 79.244095 L 926.265198 41.004593 C 911.872803 19.97287 900.097229 2.709869 900.097229 2.642395 C 900.097229 2.57489 916.25592 2.519684 936.005371 2.519684 L 971.913513 2.519684 L 971.909973 77.669296 C 971.907776 123.769409 971.81073 154.467117 971.658813 157.082764 C 971.522644 159.427887 971.233032 162.886139 971.015259 164.767792 C 970.797485 166.649445 970.395081 169.49292 970.121033 171.086609 C 969.847107 172.680328 969.334595 175.288177 968.982117 176.881897 C 968.629761 178.475586 967.958313 181.140167 967.490234 182.803146 C 967.022034 184.466141 966.25238 186.960632 965.779846 188.346466 C 965.307373 189.732285 964.394653 192.173111 963.751709 193.770508 C 963.108643 195.367905 961.841248 198.197815 960.935181 200.059204 C 960.029114 201.920593 958.48175 204.808914 957.496521 206.477676 C 956.511353 208.146454 955.057251 210.475586 954.265198 211.653534 C 953.473145 212.831497 952.001709 214.869415 950.9953 216.182236 C 949.988892 217.495056 948.232666 219.649384 947.092529 220.969635 C 945.952454 222.289886 943.558411 224.788269 941.772461 226.521637 C 939.98645 228.254974 937.158264 230.767578 935.487549 232.105164 C 933.816772 233.442764 931.265442 235.356674 929.817871 236.358307 C 928.370239 237.359955 925.898071 238.955856 924.324097 239.90477 C 922.750183 240.853699 919.909912 242.417786 918.01239 243.380539 C 916.114807 244.343292 912.923523 245.812408 910.920532 246.645248 C 908.917664 247.478088 905.52124 248.741882 903.373047 249.453674 C 901.224915 250.165482 897.539612 251.236038 895.183472 251.832687 C 892.827393 252.429337 889.255554 253.213684 887.245911 253.575653 C 885.236267 253.937637 881.777832 254.455902 879.560303 254.727371 C 877.342834 254.998825 873.657532 255.33934 871.370728 255.484055 C 869.083984 255.628784 864.66156 255.731094 861.543274 255.711426 C 858.424927 255.691742 854.399414 255.577942 852.597717 255.458511 C 850.796021 255.339096 847.493408 255.016449 845.258667 254.741547 C 843.023926 254.466629 839.622131 253.954636 837.699036 253.60379 C 835.776062 253.252945 832.341064 252.511917 830.065735 251.957062 C 827.790405 251.402222 823.928772 250.280716 821.484253 249.464859 C 819.039856 248.649002 815.63855 247.396088 813.925964 246.680603 C 812.213379 245.965118 809.243835 244.594177 807.327087 243.634033 C 805.4104 242.673904 802.565552 241.133881 801.005371 240.211761 C 799.445068 239.289642 797.091309 237.794693 795.774658 236.889648 C 794.458008 235.984604 792.360229 234.451416 791.112915 233.482544 C 789.865601 232.513687 787.654358 230.679184 786.199158 229.405884 C 784.743958 228.132568 782.476074 225.967377 781.159424 224.594345 C 779.842773 223.221313 777.908447 221.080215 776.860962 219.836365 C 775.813416 218.592499 774.267334 216.663223 773.425171 215.549057 C 772.583008 214.434906 771.157227 212.393951 770.256714 211.013626 C 769.356323 209.633301 767.904114 207.256699 767.029663 205.732285 C 766.155212 204.20787 764.730042 201.474518 763.862793 199.658173 C 762.995483 197.841827 761.72876 194.9505 761.047668 193.232986 C 760.366638 191.515472 759.459656 189.033081 759.032104 187.716537 C 758.604614 186.399994 757.919006 184.132278 757.508423 182.677155 C 757.097778 181.222046 756.471252 178.72757 756.115906 177.13385 C 755.76062 175.540161 755.245178 172.932281 754.970642 171.338593 C 754.695984 169.744873 754.294922 166.910233 754.079468 165.039368 C 753.863892 163.168518 753.575684 159.823608 753.439087 157.606293 C 753.2854 155.112106 753.190308 124.774353 753.189819 78.047241 L 753.188904 2.519684 Z M 1376.730469 187.195053 L 1376.602661 253.228348 L 1292.439819 253.228348 L 1208.277222 253.228348 L 1208.277222 127.874008 L 1208.277222 2.519684 L 1244.185425 2.519684 L 1280.093506 2.519684 L 1280.093506 94.48819 L 1280.093506 186.456696 L 1328.22583 186.456696 L 1376.358154 186.456696 L 1375.381592 184.503937 C 1374.844482 183.429916 1373.823975 181.23349 1373.11377 179.623001 C 1372.403687 178.012512 1371.326904 175.404633 1370.721069 173.827728 C 1370.115356 172.250824 1369.155762 169.543304 1368.588867 167.81102 C 1368.021973 166.078735 1367.164795 163.187408 1366.684082 161.385834 C 1366.203369 159.584259 1365.466553 156.409454 1365.046387 154.330719 C 1364.626343 152.251968 1364.05603 149.020477 1363.779175 147.149597 C 1363.502319 145.278748 1363.12793 142.103943 1362.94751 140.094482 C 1362.759521 138.002197 1362.619263 132.941589 1362.619263 128.251968 C 1362.619263 123.5578 1362.759399 118.503769 1362.947754 116.409454 C 1363.128296 114.400009 1363.55188 110.921082 1363.888794 108.678497 C 1364.225586 106.435928 1364.837891 103.013123 1365.249268 101.072235 C 1365.660767 99.131363 1366.394775 96.090591 1366.880371 94.314987 C 1367.365967 92.539383 1368.265381 89.555908 1368.87915 87.685043 C 1369.492798 85.814178 1370.561646 82.866135 1371.25415 81.133865 C 1371.946777 79.401581 1373.184448 76.510239 1374.004639 74.708664 C 1374.824707 72.907074 1376.244019 70.059631 1377.158447 68.380966 C 1378.072998 66.702301 1379.648071 63.959152 1380.658569 62.285095 C 1381.669189 60.611023 1383.51062 57.7892 1384.75061 56.014359 C 1385.990601 54.239548 1388.088501 51.426773 1389.412476 49.763779 C 1390.73645 48.1008 1393.142822 45.264771 1394.760132 43.461517 C 1396.377319 41.658264 1399.218994 38.752487 1401.074829 37.004242 C 1402.930542 35.255997 1405.639648 32.831711 1407.094849 31.616943 C 1408.550049 30.402191 1410.817993 28.595535 1412.134644 27.602158 C 1413.451294 26.608795 1415.605713 25.053314 1416.922363 24.145584 C 1418.239014 23.237839 1420.450195 21.784012 1421.836182 20.914856 C 1423.222046 20.045715 1425.660034 18.601669 1427.253906 17.705872 C 1428.847778 16.810074 1431.342407 15.478729 1432.797607 14.747345 C 1434.252808 14.015945 1436.804077 12.823547 1438.467285 12.097534 C 1440.130371 11.371506 1442.795044 10.267044 1444.388916 9.643112 C 1445.982788 9.019211 1448.420776 8.121109 1449.806641 7.647354 C 1451.192627 7.173599 1453.888672 6.33287 1455.797974 5.779099 C 1457.707397 5.225311 1460.882446 4.388336 1462.853638 3.919144 C 1464.824951 3.449951 1468.025269 2.777634 1469.965698 2.425095 C 1471.906006 2.072556 1475.251099 1.56012 1477.399292 1.286346 C 1479.547363 1.012558 1483.119385 0.639481 1485.336792 0.457275 C 1487.554321 0.27507 1492.260254 0.125992 1495.794312 0.125992 C 1499.328369 0.125992 1504.147583 0.27388 1506.503784 0.454651 C 1508.859863 0.635406 1512.545166 1.008179 1514.693359 1.283035 C 1516.841431 1.557892 1520.426392 2.118759 1522.659668 2.529419 C 1524.893066 2.940079 1528.932373 3.835251 1531.636108 4.518692 C 1534.339844 5.202103 1538.352417 6.350967 1540.552856 7.071686 C 1542.753296 7.792419 1546.084595 8.978622 1547.955566 9.707733 C 1549.826538 10.436844 1552.71814 11.644241 1554.381226 12.390869 C 1556.044434 13.137482 1559.304321 14.734726 1561.62561 15.940277 C 1563.946899 17.145844 1566.895264 18.76918 1568.177246 19.547729 C 1569.459351 20.326279 1571.812378 21.81781 1573.40625 22.862228 C 1575.000122 23.906662 1577.608154 25.726151 1579.201904 26.905518 C 1580.795776 28.084885 1583.347168 30.092239 1584.871704 31.366318 C 1586.396118 32.640366 1588.861328 34.806503 1590.349854 36.179962 C 1591.838379 37.553421 1594.431885 40.151169 1596.113403 41.952759 C 1597.7948 43.754333 1600.196777 46.475601 1601.45105 48 C 1602.7052 49.524399 1604.668945 52.035934 1605.815186 53.581192 C 1606.961304 55.126419 1608.749756 57.701111 1609.789673 59.302719 C 1610.82959 60.904327 1612.348389 63.381775 1613.164551 64.808167 C 1613.980835 66.234543 1615.341675 68.731598 1616.188721 70.357147 C 1617.035645 71.982712 1618.341187 74.703979 1619.089722 76.404388 C 1619.838135 78.104813 1620.97522 80.856705 1621.616455 82.519684 C 1622.257813 84.182678 1623.233154 86.960632 1623.783936 88.692917 C 1624.334839 90.425201 1625.18103 93.316528 1625.664673 95.118103 C 1626.148071 96.919693 1626.886719 100.094482 1627.30603 102.173233 C 1627.72522 104.251968 1628.291504 107.494995 1628.564331 109.379974 C 1628.83728 111.264938 1629.210083 114.439728 1629.392944 116.435089 C 1629.586914 118.552383 1629.725342 123.472763 1629.725342 128.251968 C 1629.725342 132.902008 1629.585938 137.965424 1629.40271 139.968506 C 1629.225342 141.908661 1628.850342 145.083466 1628.569824 147.023621 C 1628.289185 148.963776 1627.723999 152.194672 1627.313721 154.203369 C 1626.903687 156.212097 1626.167114 159.386902 1625.677002 161.258499 C 1625.187134 163.130096 1624.321777 166.078735 1623.753906 167.81102 C 1623.186279 169.543304 1622.125977 172.491333 1621.398071 174.362213 C 1620.670044 176.233063 1619.484131 179.067719 1618.762817 180.661407 C 1618.041382 182.255127 1616.760254 184.862991 1615.915649 186.456696 C 1615.071045 188.0504 1613.685303 190.544891 1612.83606 192 C 1611.986816 193.455109 1610.478882 195.871628 1609.484985 197.370026 C 1608.491089 198.868423 1606.864258 201.192841 1605.869751 202.535385 C 1604.875244 203.87793 1603.347534 205.861984 1602.47522 206.944397 C 1601.602661 208.026825 1599.634766 210.315506 1598.101929 212.03038 C 1596.569214 213.745255 1593.872437 216.530975 1592.109253 218.220871 C 1590.346069 219.910767 1587.599487 222.391022 1586.005615 223.732574 C 1584.411743 225.074112 1581.74707 227.194 1580.083862 228.443436 C 1578.420776 229.692871 1575.869385 231.506378 1574.414185 232.47348 C 1572.958984 233.440567 1570.634399 234.918945 1569.248535 235.758774 C 1567.862549 236.598587 1565.70813 237.853012 1564.460693 238.546387 C 1563.213379 239.239746 1561.05896 240.374847 1559.672974 241.068848 C 1558.287109 241.762848 1555.792358 242.924164 1554.129272 243.649582 C 1552.466187 244.374985 1549.574585 245.563065 1547.703613 246.289764 C 1545.832642 247.016449 1542.884399 248.075943 1541.151978 248.64418 C 1539.419556 249.212418 1536.584717 250.068787 1534.852295 250.547211 C 1533.119873 251.025635 1530.171509 251.760956 1528.300659 252.181274 C 1526.429688 252.601578 1523.594849 253.177261 1522.000977 253.460571 C 1520.407104 253.743866 1517.855713 254.152344 1516.331177 254.368286 C 1514.806763 254.584229 1511.858521 254.929977 1509.779541 255.136612 C 1507.638794 255.349396 1502.503052 255.550613 1497.936157 255.600662 C 1493.501221 255.649246 1489.192139 255.647827 1488.360718 255.597504 C 1487.529175 255.547165 1485.374634 255.38443 1483.572876 255.23584 C 1481.77124 255.087265 1478.596191 254.737213 1476.517334 254.457962 C 1474.438354 254.178711 1470.979858 253.619537 1468.831665 253.215363 C 1466.683594 252.811172 1463.168213 252.042435 1461.020142 251.50705 C 1458.871948 250.971649 1455.356689 249.991653 1453.208496 249.329269 C 1451.060303 248.666901 1447.71521 247.525421 1445.774902 246.792679 C 1443.834595 246.059937 1440.829712 244.847946 1439.09729 244.09938 C 1437.364868 243.3508 1433.963013 241.727753 1431.537598 240.492615 C 1429.112305 239.257462 1425.540405 237.295059 1423.600098 236.131714 C 1421.659668 234.968369 1418.824829 233.159851 1417.300415 232.112793 C 1415.775879 231.065735 1413.394531 229.356979 1412.008667 228.315567 C 1410.622681 227.274155 1408.128052 225.286591 1406.464966 223.898743 C 1404.801758 222.510925 1401.279053 219.216339 1398.636475 216.577484 C 1395.993896 213.938599 1392.612061 210.305511 1391.121216 208.503937 C 1389.630127 206.702362 1387.399658 203.842117 1386.164429 202.147827 C 1384.929199 200.453552 1383.028076 197.675598 1381.939819 195.974609 C 1380.851318 194.273605 1379.234131 191.602356 1378.345703 190.038467 L 1376.730469 187.195053 Z M 69.297081 253.228348 L 69.17041 69.417328 L 34.584278 69.353439 L -0.001852 69.289551 L 0.062071 35.967606 L 0.125993 2.645676 L 105.204536 2.645676 L 210.283081 2.645676 L 210.347 35.967606 L 210.410919 69.289551 L 175.824783 69.353439 L 141.238663 69.417328 L 141.175323 161.322845 L 141.112 253.228348 L 105.204536 253.228348 L 69.297081 253.228348 Z M 219.73259 253.228348 L 219.73259 2.519684 L 255.640717 2.519684 L 291.548859 2.519684 L 291.548859 45.732285 L 291.548859 88.944885 L 325.944366 88.944885 L 360.339844 88.944885 L 360.403564 45.795273 L 360.467285 2.645676 L 396.312408 2.581818 L 432.157562 2.51796 L 432.157562 127.873154 L 432.157562 253.228348 L 396.24942 253.228348 L 360.341278 253.228348 L 360.341278 204.598419 L 360.341278 155.968506 L 325.945068 155.968506 L 291.548859 155.968506 L 291.548859 204.598419 L 291.548859 253.228348 L 255.640717 253.228348 L 219.73259 253.228348 Z M 458.112213 253.228348 L 458.112213 2.519684 L 547.693542 2.519684 L 637.274902 2.519684 L 637.274902 35.905518 L 637.274902 69.291336 L 583.601685 69.291336 L 529.928467 69.291336 L 529.928467 79.117508 L 529.928467 88.943665 L 581.270813 89.007278 L 632.613159 89.070862 L 632.613159 122.456696 L 632.613159 155.842529 L 581.270813 155.906128 L 529.928467 155.969727 L 529.928467 171.213196 L 529.928467 186.456696 L 583.601685 186.456696 L 637.274902 186.456696 L 637.274902 219.842514 L 637.274902 253.228348 L 547.693542 253.228348 L 458.112213 253.228348 Z M 996.608215 253.228348 L 996.608215 2.494537 L 1053.746216 2.604324 C 1103.57959 2.700073 1111.383545 2.765244 1114.790039 3.114014 C 1116.938232 3.333954 1120.340088 3.751694 1122.349731 4.042313 C 1124.359375 4.332901 1127.647705 4.915802 1129.657349 5.337601 C 1131.666992 5.759399 1134.872437 6.545258 1136.780518 7.083954 C 1138.688721 7.62265 1141.636963 8.566223 1143.332153 9.180801 C 1145.027466 9.795349 1147.687622 10.861084 1149.243896 11.549057 C 1150.799927 12.23703 1153.408081 13.506393 1155.039551 14.369843 C 1156.671021 15.233292 1159.447632 16.895081 1161.209717 18.062714 C 1162.971924 19.230347 1165.636475 21.169327 1167.130981 22.371552 C 1168.625732 23.573807 1171.099976 25.806824 1172.629395 27.333847 C 1174.158936 28.860855 1176.383179 31.330811 1177.572266 32.822632 C 1178.761353 34.314468 1180.47229 36.63887 1181.374512 37.987991 C 1182.276855 39.337128 1183.708496 41.689362 1184.556274 43.21521 C 1185.404053 44.741058 1186.718506 47.424225 1187.477295 49.177795 C 1188.236084 50.931366 1189.318481 53.746918 1189.88269 55.434586 C 1190.446899 57.122253 1191.293213 60.069717 1191.763428 61.984528 C 1192.233643 63.899338 1192.8573 66.880798 1193.149292 68.609985 C 1193.441406 70.339188 1193.845825 73.552643 1194.048096 75.751022 C 1194.251465 77.961441 1194.414063 82.451019 1194.411743 85.795273 C 1194.409424 89.121262 1194.248047 93.486618 1194.052856 95.496063 C 1193.857788 97.505508 1193.452637 100.669937 1193.152466 102.528122 C 1192.852417 104.386322 1192.273804 107.277664 1191.866699 108.953323 C 1191.459717 110.628998 1190.721558 113.247253 1190.22644 114.771652 C 1189.731201 116.296066 1188.85791 118.733856 1188.285522 120.18898 C 1187.713135 121.644104 1186.544678 124.21344 1185.688965 125.898636 C 1184.833374 127.583817 1183.432495 130.078308 1182.576172 131.44194 C 1181.719849 132.805573 1180.376831 134.816376 1179.591919 135.9104 C 1178.807129 137.004425 1177.119263 139.117813 1175.841553 140.606796 C 1174.563721 142.095795 1172.344849 144.402161 1170.910522 145.732056 C 1169.476318 147.061951 1167.34668 148.903748 1166.178223 149.824951 C 1165.009644 150.74614 1162.636108 152.436844 1160.903687 153.582062 C 1159.171265 154.727295 1156.173096 156.490799 1154.241211 157.500961 C 1152.309204 158.511124 1149.417603 159.893448 1147.815552 160.572784 C 1146.213379 161.252136 1143.428345 162.314545 1141.626709 162.933716 C 1139.825073 163.552887 1136.876709 164.447983 1135.075073 164.922836 C 1133.273315 165.39769 1130.399658 166.070679 1128.688965 166.418365 C 1126.978394 166.766052 1123.98584 167.283234 1122.039063 167.567627 C 1120.092163 167.85202 1116.785889 168.254761 1114.691772 168.46257 C 1111.800903 168.749451 1105.773438 168.874756 1089.654419 168.983078 L 1068.424438 169.125732 L 1068.424438 211.177032 L 1068.424438 253.228348 L 1032.516357 253.228348 L 996.608215 253.228348 Z M 1705.303101 2.015747 L 1763.284912 2.015747 L 1772.055908 24.434052 C 1776.879761 36.764114 1785.511841 58.822662 1791.238159 73.453033 C 1796.964478 88.08342 1814.844482 133.783356 1830.971436 175.008484 L 1860.293335 249.963226 L 1860.419312 126.304443 L 1860.545288 2.645676 L 1906.406982 2.645676 C 1941.63208 2.645676 1953.349731 2.722092 1956.930298 2.975174 C 1959.494263 3.156418 1963.406494 3.518631 1965.623901 3.780075 C 1967.841309 4.041534 1971.07312 4.485092 1972.805542 4.765778 C 1974.537964 5.046463 1977.31604 5.55423 1978.979248 5.89415 C 1980.642334 6.23407 1983.647217 6.925034 1985.65686 7.429611 C 1987.666504 7.934174 1990.557983 8.723907 1992.08252 9.184509 C 1993.606934 9.645142 1996.328491 10.538605 1998.130249 11.169968 C 1999.931885 11.801331 2002.823486 12.900482 2004.555908 13.612518 C 2006.28833 14.324554 2009.57666 15.810303 2011.863525 16.914169 C 2014.150269 18.018036 2017.608765 19.841476 2019.549072 20.966248 C 2021.48938 22.091019 2024.380859 23.883942 2025.974731 24.950531 C 2027.568604 26.017105 2030.006592 27.737915 2031.392456 28.774536 C 2032.778442 29.811142 2034.989502 31.54776 2036.306274 32.633682 C 2037.622925 33.719604 2040.863281 36.770874 2043.50708 39.414276 C 2046.150879 42.057693 2049.421875 45.581116 2050.775879 47.244095 C 2052.129883 48.907074 2054.162354 51.570648 2055.29248 53.163132 C 2056.422363 54.7556 2058.048828 57.164246 2058.906738 58.515656 C 2059.764648 59.867081 2061.084717 62.079117 2061.840088 63.431274 C 2062.595459 64.783447 2063.841064 67.146103 2064.607666 68.681641 C 2065.374512 70.217163 2066.618652 72.938416 2067.372314 74.728882 C 2068.125977 76.519333 2069.209961 79.288193 2069.781006 80.881897 C 2070.352295 82.475601 2071.211182 85.083466 2071.689697 86.67717 C 2072.167969 88.270874 2072.917725 90.992126 2073.355469 92.724411 C 2073.792969 94.456696 2074.426758 97.291336 2074.76416 99.023621 C 2075.101563 100.755905 2075.595947 103.647232 2075.862793 105.448822 C 2076.129395 107.250397 2076.551758 110.93544 2076.800781 113.637802 C 2077.123779 117.136108 2077.25415 120.837097 2077.25415 126.48819 C 2077.25415 132.139297 2077.123779 135.840271 2076.800781 139.338593 C 2076.551758 142.040955 2076.130371 145.7323 2075.865234 147.541595 C 2075.599609 149.350861 2075.087402 152.355591 2074.726563 154.21875 C 2074.365723 156.081909 2073.729736 158.966919 2073.312988 160.629913 C 2072.896484 162.292908 2072.169434 164.957474 2071.697021 166.551178 C 2071.224854 168.144882 2070.334961 170.86615 2069.719238 172.598419 C 2069.104004 174.330719 2067.983643 177.222046 2067.230225 179.023621 C 2066.476563 180.825195 2065.164063 183.69577 2064.313721 185.402679 C 2063.463379 187.109589 2062.158203 189.604065 2061.413574 190.945984 C 2060.668701 192.287903 2059.380615 194.47168 2058.551025 195.798828 C 2057.721436 197.125977 2056.216797 199.393692 2055.20752 200.838196 C 2054.198486 202.2827 2052.574951 204.485046 2051.599854 205.732285 C 2050.624756 206.979523 2048.726318 209.247238 2047.381348 210.771652 C 2046.036377 212.296066 2043.589478 214.891418 2041.94397 216.539124 C 2040.29834 218.186829 2037.477905 220.78717 2035.67627 222.317688 C 2033.874512 223.84819 2031.095703 226.071716 2029.501099 227.258865 C 2027.906494 228.446014 2025.185059 230.340851 2023.453369 231.46962 C 2021.721802 232.598389 2018.887573 234.328186 2017.155273 235.313629 C 2015.422852 236.299072 2012.27002 237.957932 2010.149048 238.999969 C 2008.028076 240.041992 2004.499023 241.625916 2002.306641 242.519791 C 2000.11438 243.413651 1996.433472 244.774979 1994.127075 245.544952 C 1991.820557 246.314926 1988.502197 247.337143 1986.752808 247.816559 C 1985.003418 248.29599 1981.801636 249.080002 1979.637695 249.558838 C 1977.473755 250.037674 1974.002441 250.712097 1971.923584 251.057571 C 1969.844727 251.403046 1966.556274 251.866867 1964.615967 252.088272 C 1962.675537 252.309692 1959.954224 252.614243 1958.568237 252.765045 C 1956.821533 252.955124 1929.677734 253.070419 1870.109619 253.140778 L 1784.170776 253.24231 L 1776.897949 233.518799 C 1772.897827 222.670853 1769.292725 212.916534 1768.886597 211.842514 L 1768.147949 209.889771 L 1734.047974 209.889771 L 1699.947754 209.889771 L 1699.300049 211.590546 C 1698.943848 212.525986 1695.270752 222.248825 1691.137573 233.196854 L 1683.622803 253.102356 L 1645.14563 253.166153 C 1623.983276 253.201248 1606.668579 253.184601 1606.668579 253.129181 C 1606.668579 253.073761 1627.07312 201.08345 1652.011963 137.595169 C 1676.950562 74.106888 1699.143433 17.629044 1701.329102 12.088837 L 1705.303101 2.015747 Z M 2093.254883 253.228348 L 2093.381348 2.645676 L 2183.025635 2.582321 L 2272.669922 2.518982 L 2272.669922 35.904572 L 2272.669922 69.290192 L 2218.933838 69.353745 L 2165.19751 69.417328 L 2165.131592 79.181107 L 2165.065674 88.944885 L 2216.473877 88.944885 L 2267.88208 88.944885 L 2267.88208 122.456696 L 2267.88208 155.968506 L 2216.476807 155.968506 L 2165.071533 155.968506 L 2165.071533 171.212601 L 2165.071533 186.456696 L 2218.87085 186.456696 L 2272.669922 186.456696 L 2272.669922 219.842514 L 2272.669922 253.228348 L 2182.962402 253.228348 L 2093.254883 253.228348 Z M 2291.064453 253.228348 L 2291.190918 2.645676 L 2345.494141 2.645676 C 2385.846924 2.645676 2400.962646 2.725296 2404.333008 2.955658 C 2406.827881 3.12616 2410.229736 3.44516 2411.892822 3.664551 C 2413.555664 3.883957 2416.44751 4.344513 2418.318359 4.688049 C 2420.189209 5.03157 2423.298584 5.704987 2425.227539 6.184509 C 2427.156738 6.664047 2430.438965 7.625473 2432.521484 8.32103 C 2434.604004 9.016571 2437.901855 10.26268 2439.849365 11.090149 C 2441.797363 11.917633 2444.86499 13.398346 2446.666992 14.380646 C 2448.46875 15.362946 2451.190186 16.987061 2452.7146 17.989792 C 2454.239014 18.992523 2456.450439 20.560852 2457.628418 21.474991 C 2458.806396 22.389114 2460.847656 24.109467 2462.164063 25.297989 C 2463.480713 26.486496 2465.561035 28.565704 2466.786621 29.918427 C 2468.012451 31.271164 2469.945557 33.625198 2471.082764 35.149612 C 2472.219727 36.674011 2473.780518 38.941727 2474.55127 40.18898 C 2475.322021 41.436218 2476.407715 43.307083 2476.963867 44.346451 C 2477.520264 45.385834 2478.496582 47.386017 2479.133057 48.791321 C 2479.769775 50.19664 2480.810547 52.861206 2481.446045 54.712585 C 2482.081299 56.56398 2482.981934 59.55275 2483.44751 61.354324 C 2483.912842 63.155914 2484.53418 66.047241 2484.828125 67.779526 C 2485.122314 69.51181 2485.544678 72.887146 2485.767334 75.280289 C 2486.082031 78.662277 2486.136963 81.159729 2486.014648 86.492874 C 2485.928223 90.266693 2485.688721 94.601578 2485.482666 96.125992 C 2485.276855 97.650391 2484.873291 100.144882 2484.586182 101.669296 C 2484.299072 103.193695 2483.734619 105.688187 2483.331787 107.212601 C 2482.928711 108.737 2482.154053 111.303696 2481.609863 112.916351 C 2481.065918 114.529007 2480.031494 117.176422 2479.311523 118.799484 C 2478.591553 120.422562 2477.376953 122.90155 2476.612793 124.308334 C 2475.848389 125.715134 2474.395996 128.113388 2473.385254 129.637787 C 2472.374512 131.162201 2470.598633 133.599564 2469.438477 135.054138 C 2468.278809 136.508728 2465.972168 139.046387 2464.313232 140.693359 C 2462.653809 142.340332 2460.20874 144.568542 2458.879395 145.644928 C 2457.550049 146.721344 2455.505859 148.274475 2454.336426 149.09639 C 2453.16748 149.918289 2452.225098 150.751923 2452.243164 150.948914 C 2452.260742 151.145905 2459.42749 163.470978 2468.168701 178.337967 C 2476.910156 193.204956 2489.085693 213.916763 2495.225098 224.364227 L 2506.387695 243.359589 L 2506.45166 214.908142 L 2506.516113 186.456696 L 2555.337158 186.454102 C 2586.901123 186.452408 2605.227783 186.359161 2607.182617 186.190277 C 2608.845459 186.046631 2611.226807 185.719696 2612.474365 185.463776 C 2613.72168 185.207855 2615.397705 184.750122 2616.199219 184.446594 C 2617.000732 184.143051 2618.133057 183.530945 2618.716064 183.086334 C 2619.299072 182.641724 2620.033691 181.895752 2620.348633 181.428635 C 2620.66333 180.961517 2621.149658 179.838989 2621.429199 178.934189 C 2621.70874 178.029358 2622.066895 175.911987 2622.22583 174.228867 C 2622.444824 171.904282 2622.442139 170.231964 2622.2146 167.271759 C 2622.050049 165.128464 2621.732178 162.643845 2621.508057 161.750412 C 2621.284424 160.856979 2620.891846 159.709793 2620.635498 159.201111 C 2620.260986 158.457153 2619.89502 158.173401 2618.764893 157.750549 C 2617.992188 157.461441 2616.430664 157.042114 2615.295166 156.818726 C 2613.611572 156.48764 2610.971924 156.397125 2601.008789 156.328827 C 2594.287109 156.282745 2585.895996 156.121613 2582.361816 155.970764 C 2578.827637 155.819916 2574.462158 155.5298 2572.6604 155.32608 C 2570.858643 155.122345 2568.011719 154.733032 2566.333252 154.460907 C 2564.655273 154.188782 2561.877197 153.66951 2560.159668 153.306931 C 2558.442383 152.944366 2555.318359 152.154419 2553.217529 151.551514 C 2551.116455 150.948608 2547.771484 149.81456 2545.783936 149.031403 C 2543.796387 148.24826 2540.463135 146.732086 2538.376953 145.66214 C 2536.290771 144.592163 2533.285645 142.854446 2531.699219 141.800522 C 2530.112793 140.746582 2527.85083 139.112793 2526.672852 138.169861 C 2525.494873 137.226929 2523.282959 135.204941 2521.757813 133.676544 C 2520.232666 132.148148 2518.19165 129.900177 2517.221924 128.68103 C 2516.252441 127.461899 2514.685547 125.307556 2513.739746 123.893646 C 2512.793945 122.479706 2511.140381 119.556915 2510.064941 117.398575 C 2508.989258 115.240234 2507.62915 112.122131 2507.041748 110.469437 C 2506.45459 108.816757 2505.703857 106.535751 2505.374268 105.400543 C 2505.044434 104.26532 2504.47876 101.940918 2504.116943 100.235184 C 2503.754883 98.529449 2503.230225 95.489761 2502.950928 93.480316 C 2502.586914 90.860168 2502.403076 87.795593 2502.30127 82.645676 C 2502.190186 76.989609 2502.250244 74.507874 2502.584473 70.959686 C 2502.817627 68.48201 2503.235596 65.137131 2503.512939 63.526627 C 2503.790283 61.916107 2504.253174 59.577957 2504.541992 58.330704 C 2504.830566 57.083466 2505.395996 54.985825 2505.79834 53.669296 C 2506.200928 52.352768 2506.932861 50.198425 2507.425049 48.881897 C 2507.91748 47.565353 2508.938477 45.18425 2509.694336 43.590546 C 2510.450439 41.996841 2511.708008 39.615738 2512.489014 38.29921 C 2513.270508 36.982681 2514.505615 35.055115 2515.233643 34.015747 C 2515.962158 32.976379 2517.206787 31.332275 2517.999512 30.362198 C 2518.79248 29.392136 2520.813232 27.230988 2522.48999 25.559692 C 2524.166992 23.888382 2526.616211 21.688263 2527.932617 20.670532 C 2529.249268 19.652817 2531.403809 18.112213 2532.720459 17.246979 C 2534.036865 16.381744 2536.531738 14.921234 2538.26416 14.001358 C 2539.996582 13.081497 2542.831299 11.723282 2544.563721 10.983109 C 2546.296143 10.24295 2549.35791 9.101379 2551.367432 8.446304 C 2553.376953 7.791199 2556.268555 6.932724 2557.793213 6.538544 C 2559.317627 6.144363 2562.039063 5.538971 2563.84082 5.193237 C 2565.642578 4.847504 2568.818359 4.327957 2570.898193 4.038696 C 2572.977783 3.749435 2576.549561 3.334824 2578.835693 3.117355 C 2582.408691 2.777435 2590.354736 2.705658 2635.468018 2.605804 L 2687.944336 2.489655 L 2687.944336 35.890503 L 2687.944336 69.291336 L 2663.438721 69.319427 C 2649.960449 69.334869 2626.403076 69.436218 2611.088379 69.544632 C 2587.686523 69.710312 2582.9021 69.803894 2581.101807 70.131119 C 2579.923828 70.345276 2578.296631 70.718872 2577.48584 70.961349 C 2576.581543 71.23175 2575.869629 71.618423 2575.64502 71.961273 C 2575.443604 72.268753 2575.154053 73.522934 2575.001709 74.748337 C 2574.843262 76.024506 2574.786865 78.483459 2574.870117 80.503937 C 2574.950195 82.444092 2575.154785 84.527435 2575.325439 85.133591 C 2575.593506 86.086304 2575.78833 86.303345 2576.763916 86.734848 C 2577.384521 87.009399 2578.92627 87.447525 2580.190186 87.708496 C 2581.453857 87.969437 2584.528809 88.301285 2587.023682 88.445923 C 2589.518311 88.590561 2597.852539 88.759125 2605.544678 88.82048 C 2613.236572 88.881851 2620.550537 89.047577 2621.797852 89.188766 C 2623.045166 89.329956 2625.426514 89.624069 2627.0896 89.842331 C 2628.752441 90.060608 2631.758789 90.569443 2633.769531 90.973068 C 2635.780518 91.376694 2638.843018 92.095245 2640.574707 92.569855 C 2642.306641 93.044449 2645.197021 93.964844 2646.998047 94.615173 C 2648.798828 95.265503 2651.746338 96.493149 2653.548096 97.343307 C 2655.349854 98.193451 2657.787842 99.438522 2658.96582 100.110077 C 2660.143799 100.781662 2662.185059 102.054138 2663.501709 102.937759 C 2664.818115 103.821411 2666.859375 105.310532 2668.037354 106.246933 C 2669.215332 107.18335 2671.605225 109.371094 2673.348389 111.108612 C 2675.091064 112.846115 2677.282715 115.231506 2678.218506 116.409454 C 2679.154053 117.587402 2680.633789 119.628357 2681.506836 120.944885 C 2682.379639 122.261414 2683.729004 124.46669 2684.504883 125.845474 C 2685.281006 127.224274 2686.529053 129.71875 2687.278809 131.388794 C 2688.02832 133.058807 2689.167725 135.943298 2689.810303 137.798767 C 2690.453369 139.654236 2691.36792 142.715668 2691.842773 144.601929 C 2692.317383 146.48819 2692.944092 149.360931 2693.234619 150.985779 C 2693.525391 152.610626 2693.924805 155.218506 2694.122314 156.781052 C 2694.31958 158.343597 2694.620117 162.249237 2694.790039 165.460236 C 2695.031494 170.025299 2695.033203 172.442978 2694.797607 176.54686 C 2694.63208 179.433487 2694.275146 183.325989 2694.004395 185.196854 C 2693.733643 187.067719 2693.2771 189.732285 2692.989746 191.118103 C 2692.702637 192.503937 2692.125732 194.870544 2691.708252 196.377228 C 2691.290527 197.883911 2690.43042 200.548462 2689.797119 202.298477 C 2689.163818 204.048492 2687.941895 206.95433 2687.082031 208.755905 C 2686.222412 210.55748 2684.69751 213.384125 2683.693848 215.037354 C 2682.689941 216.690567 2680.920898 219.298431 2679.762207 220.832626 C 2678.603516 222.366806 2676.76709 224.607574 2675.681396 225.812088 C 2674.595459 227.016617 2672.629883 228.990173 2671.313232 230.197769 C 2669.996582 231.405365 2668.182373 232.980835 2667.281494 233.698807 C 2666.380615 234.416779 2664.679688 235.683777 2663.501709 236.514374 C 2662.32373 237.344971 2660.288086 238.669342 2658.978516 239.457428 C 2657.668701 240.245514 2655.400879 241.500916 2653.938721 242.247208 C 2652.476563 242.993515 2649.891602 244.186996 2648.194336 244.899399 C 2646.49707 245.611816 2643.435547 246.753052 2641.390869 247.435486 C 2639.345947 248.117935 2636.32251 249.016953 2634.672119 249.433304 C 2633.021484 249.849655 2630.243652 250.474121 2628.498291 250.820999 C 2626.753418 251.167877 2623.767578 251.675797 2621.863281 251.949707 C 2619.958984 252.223618 2616.500732 252.595032 2614.177734 252.775055 C 2610.822998 253.035034 2591.352539 253.102356 2519.519775 253.102356 L 2429.084717 253.102356 L 2404.233398 209.51181 L 2379.38208 165.921265 L 2371.257568 165.854767 L 2363.133301 165.7883 L 2363.133301 209.508316 L 2363.133301 253.228348 L 2327.098877 253.228348 L 2291.064453 253.228348 Z M 1495.668335 188.176147 C 1498.230103 188.202286 1501.31958 188.061554 1503.353882 187.82605 C 1505.224854 187.609436 1508.116455 187.146179 1509.779541 186.796539 C 1511.442749 186.44693 1514.277588 185.676025 1516.079224 185.083466 C 1517.880981 184.490906 1520.730347 183.384308 1522.411133 182.624329 C 1524.091919 181.864349 1526.672363 180.524689 1528.145508 179.647293 C 1529.61853 178.769882 1532.00061 177.168457 1533.438843 176.088577 C 1534.877197 175.008682 1537.264771 172.969299 1538.744507 171.55658 C 1540.224243 170.14389 1542.356323 167.844482 1543.482544 166.446777 C 1544.608643 165.049072 1546.196899 162.88504 1547.011841 161.637787 C 1547.826782 160.390549 1549.316284 157.718842 1550.321899 155.700653 C 1551.327515 153.682465 1552.672363 150.450989 1553.310303 148.519562 C 1553.948242 146.588135 1554.76062 143.696503 1555.115601 142.093719 C 1555.470581 140.490952 1555.932373 137.713684 1556.14209 135.922043 C 1556.351563 134.130402 1556.523193 130.71991 1556.523193 128.343201 C 1556.523193 125.966492 1556.405029 122.847687 1556.26062 121.412521 C 1556.116089 119.977356 1555.661011 117.121231 1555.249023 115.065582 C 1554.83728 113.009903 1553.983643 109.778412 1553.352051 107.884476 C 1552.720459 105.990524 1551.474121 102.92189 1550.582764 101.065247 C 1549.691162 99.208618 1548.312012 96.659927 1547.517944 95.401489 C 1546.723877 94.143036 1545.437866 92.260513 1544.660034 91.218124 C 1543.882446 90.17572 1542.321777 88.281815 1541.192139 87.009476 C 1540.062378 85.737106 1537.861938 83.598663 1536.302124 82.257339 C 1534.742554 80.916016 1532.123047 78.920135 1530.481323 77.822021 C 1528.8396 76.723923 1525.813965 74.992157 1523.757446 73.973648 C 1521.555054 72.882874 1518.412598 71.594009 1516.111084 70.83754 C 1513.962036 70.131165 1510.807983 69.26973 1509.101807 68.923218 C 1507.39563 68.576691 1504.582397 68.149261 1502.849976 67.973358 C 1501.117554 67.797455 1498.055908 67.653549 1496.046265 67.653549 C 1494.036621 67.653549 1490.975708 67.797821 1489.244019 67.974167 C 1487.512451 68.150513 1484.677612 68.586105 1482.944336 68.942154 C 1481.211182 69.298218 1478.31897 70.075745 1476.517334 70.670029 C 1474.715576 71.264297 1472.040527 72.278656 1470.572632 72.924133 C 1469.104736 73.569611 1466.693604 74.802124 1465.214722 75.663025 C 1463.735718 76.523956 1461.517212 77.943222 1460.284668 78.81694 C 1459.052124 79.690674 1456.877197 81.448135 1455.451538 82.722458 C 1454.025879 83.99675 1451.955933 86.059845 1450.851685 87.307083 C 1449.747559 88.554337 1448.227173 90.406128 1447.473267 91.422195 C 1446.71936 92.438248 1445.540649 94.175598 1444.853638 95.282959 C 1444.16687 96.390305 1442.944458 98.620407 1442.137329 100.238708 C 1441.330322 101.857025 1440.252808 104.299088 1439.743042 105.665527 C 1439.233276 107.031952 1438.438721 109.527313 1437.977295 111.210754 C 1437.515869 112.894196 1436.957397 115.347855 1436.736328 116.663345 C 1436.515259 117.978821 1436.219971 120.075592 1436.079956 121.32283 C 1435.940063 122.570084 1435.824585 125.664307 1435.823486 128.198914 C 1435.822388 130.733505 1435.940796 133.908295 1436.086548 135.254028 C 1436.232544 136.599747 1436.680908 139.344879 1437.08313 141.35434 C 1437.485229 143.363785 1438.227173 146.255127 1438.731689 147.779526 C 1439.236206 149.303925 1439.968628 151.305573 1440.359375 152.227585 C 1440.750122 153.149597 1441.658813 155.077164 1442.378662 156.511047 C 1443.098267 157.944946 1444.311279 160.076874 1445.074219 161.248688 C 1445.837036 162.420517 1447.152466 164.291382 1447.997559 165.406174 C 1448.842407 166.520966 1450.729126 168.664917 1452.190063 170.170517 C 1453.651123 171.676102 1455.980347 173.823318 1457.366333 174.942093 C 1458.752197 176.060867 1460.906616 177.638855 1462.154053 178.44873 C 1463.401489 179.258606 1465.669312 180.560486 1467.193726 181.341782 C 1468.718262 182.123077 1471.042603 183.2005 1472.358887 183.736053 C 1473.675171 184.271606 1475.829712 185.040894 1477.146606 185.445572 C 1478.463623 185.85025 1480.584717 186.412476 1481.860474 186.694977 C 1483.135986 186.977478 1485.290405 187.373535 1486.648193 187.575134 C 1488.005859 187.776703 1489.626953 187.984558 1490.25061 188.037048 C 1490.874268 188.089508 1493.312256 188.1521 1495.668335 188.176147 Z M 1932.235596 69.543304 L 1932.235596 186.456696 L 1940.136719 186.456696 C 1944.482178 186.456696 1949.499756 186.339539 1951.287109 186.19635 C 1953.074219 186.053177 1955.727173 185.762604 1957.182373 185.550629 C 1958.637573 185.338684 1961.188843 184.839813 1962.852051 184.442078 C 1964.515137 184.044327 1967.180542 183.266846 1968.775269 182.714325 C 1970.369995 182.161804 1972.751343 181.209763 1974.067017 180.598663 C 1975.382813 179.987579 1977.482178 178.870636 1978.732178 178.116547 C 1979.982178 177.362488 1981.910034 176.067535 1983.015869 175.238892 C 1984.121948 174.410263 1985.978394 172.825195 1987.141235 171.716537 C 1988.304199 170.60788 1990.019409 168.793701 1990.952881 167.685028 C 1991.886353 166.576385 1993.398315 164.524384 1994.312866 163.125031 C 1995.227417 161.725693 1996.711426 159.069122 1997.61084 157.221558 C 1998.510132 155.373978 1999.806763 152.153534 2000.492065 150.065033 C 2001.17749 147.976501 2002.028198 144.850403 2002.382568 143.118103 C 2002.736938 141.385834 2003.204224 138.551178 2003.421143 136.818909 C 2003.638062 135.086609 2003.885986 131.557037 2003.972168 128.975418 C 2004.066895 126.137421 2004.011719 122.800003 2003.832397 120.53447 C 2003.669434 118.473572 2003.362793 115.596863 2003.151001 114.141739 C 2002.939209 112.686615 2002.421997 110.085236 2002.001587 108.36087 C 2001.581299 106.636505 2000.791504 103.971954 2000.246582 102.439606 C 1999.701782 100.907272 1998.64563 98.406296 1997.899536 96.881897 C 1997.153564 95.357483 1995.871948 93.089767 1995.051636 91.842514 C 1994.231323 90.595276 1992.665894 88.509109 1991.572876 87.206589 C 1990.479736 85.904068 1988.559814 83.939453 1987.306152 82.840775 C 1986.05249 81.742111 1983.949707 80.123871 1982.633057 79.244705 C 1981.316406 78.36554 1979.354736 77.170837 1978.273926 76.589828 C 1977.192993 76.008835 1975.408325 75.153763 1974.307861 74.689682 C 1973.207397 74.225616 1971.282959 73.502853 1970.031372 73.083557 C 1968.779785 72.664261 1966.629761 72.035797 1965.25354 71.686981 C 1963.877441 71.338165 1961.41333 70.833054 1959.777832 70.564484 C 1958.142456 70.295944 1955.565674 69.956314 1954.051636 69.809769 C 1952.537842 69.663223 1947.009888 69.543304 1941.767334 69.543304 L 1932.235596 69.543304 Z M 1733.795898 143.874023 C 1744.647217 143.874023 1746.054443 143.829819 1745.926392 143.492981 C 1745.84668 143.283417 1743.272705 136.508621 1740.206543 128.437866 C 1737.140381 120.367126 1734.443237 113.32634 1734.212891 112.791672 C 1733.794067 111.81958 1733.794067 111.81958 1727.792358 127.461929 C 1724.491333 136.065216 1721.729858 143.277466 1721.65564 143.489136 C 1721.535767 143.830902 1722.89563 143.874023 1733.795898 143.874023 Z M 1068.424438 102.29921 C 1093.519165 102.295715 1102.660278 102.18187 1104.928101 102.043961 C 1107.195923 101.906036 1110.162964 101.566696 1111.521484 101.289856 C 1112.880005 101.013046 1114.652588 100.533615 1115.460327 100.224503 C 1116.367065 99.877518 1117.374878 99.226929 1118.094482 98.524155 C 1118.886963 97.750031 1119.437012 96.904877 1119.813599 95.882599 C 1120.118286 95.055832 1120.545532 93.184967 1120.763184 91.725113 C 1121.064331 89.706345 1121.126221 87.924683 1121.021973 84.283463 C 1120.936401 81.29657 1120.734009 78.832718 1120.483643 77.732285 C 1120.263062 76.762207 1119.770508 75.344894 1119.38916 74.582703 C 1118.970947 73.746887 1118.285767 72.889252 1117.66272 72.421722 C 1117.09436 71.995361 1115.847168 71.395264 1114.890869 71.088165 C 1113.93457 70.781082 1112.244995 70.354797 1111.13623 70.140869 C 1109.49646 69.824493 1105.382202 69.708618 1089.087402 69.519882 C 1078.069214 69.392273 1068.91272 69.341782 1068.739502 69.407684 C 1068.491943 69.501831 1068.424438 73.036545 1068.424438 85.913361 L 1068.424438 102.29921 Z M 2363.133301 69.241531 L 2363.133301 99.527557 L 2380.079346 99.525497 C 2390.04248 99.524277 2397.960205 99.41658 2399.293457 99.26416 C 2400.540771 99.121552 2402.599854 98.788239 2403.869385 98.523407 C 2405.13916 98.258591 2406.810791 97.77507 2407.584229 97.448898 C 2408.357666 97.122742 2409.489258 96.504471 2410.098633 96.074966 C 2410.893311 95.514893 2411.426758 94.841736 2411.986084 93.694275 C 2412.487793 92.664505 2412.901367 91.241592 2413.146973 89.70079 C 2413.356934 88.384262 2413.529053 85.932968 2413.529541 84.253479 C 2413.530029 82.57399 2413.355469 80.192902 2413.141357 78.962143 C 2412.927002 77.731384 2412.489258 76.149933 2412.168213 75.447784 C 2411.847412 74.745651 2411.169434 73.767792 2410.661865 73.274796 C 2410.154053 72.781769 2409.065674 72.07637 2408.243164 71.707214 C 2407.42041 71.338058 2405.864014 70.815811 2404.78418 70.546677 C 2403.70459 70.277527 2401.970703 69.934189 2400.931396 69.783691 C 2399.791504 69.618637 2391.916504 69.456772 2381.087402 69.375778 L 2363.133301 69.241531 Z"/>
</svg>
